<?xml version="1.0" encoding="UTF-8"?> <svg xmlns="http://www.w3.org/2000/svg" xmlns:xlink="http://www.w3.org/1999/xlink" version="1.1" id="ag_vespa_-_liggend_-_zwart" x="0px" y="0px" viewBox="0 0 183.6 57.4" style="enable-background:new 0 0 183.6 57.4;" xml:space="preserve"> <style type="text/css"> .st0{fill:#0057B7;} .st1{clip-path:url(#SVGID_2_);fill:#0057B7;} </style> <polygon class="st0" points="0,0 0,57.4 39.8,57.4 6.7,0 "></polygon> <polygon class="st0" points="45.3,57.4 57.3,57.4 57.3,36.6 "></polygon> <polygon class="st0" points="27.8,0 42.6,25.5 57.3,0 "></polygon> <g> <g> <defs> <rect id="SVGID_1_" width="183.6" height="57.4"></rect> </defs> <clipPath id="SVGID_2_"> <use xlink:href="#SVGID_1_" style="overflow:visible;"></use> </clipPath> <path class="st1" d="M173.6,27.6c0-2.3,1.5-3.6,3.1-3.6c1.5,0,3.1,1.1,3.1,3.6s-1.5,3.6-3.1,3.6C175.1,31.3,173.6,30,173.6,27.6 M169.6,27.6c0,3.9,2.5,6.6,5.8,6.6c1.5,0,3.3-0.6,4.4-2.1l0.1,1.6h3.7V21.6h-3.7l-0.1,1.6c-1-1.5-2.8-2.1-4.4-2.1 C172.2,21.1,169.6,23.8,169.6,27.6 M162.9,27.7c0,2.3-1.5,3.6-3.1,3.6c-1.5,0-3.1-1.1-3.1-3.6s1.5-3.6,3.1-3.6 C161.4,24,162.9,25.3,162.9,27.7 M166.9,27.7c0-3.9-2.5-6.6-5.8-6.6c-1.5,0-3.3,0.6-4.4,2.1l-0.1-1.6h-3.7v19.1h4v-8.3 c1.1,1.3,2.7,1.8,4.2,1.8C164.3,34.2,166.9,31.5,166.9,27.7 M149.5,29.8c0-1.6-1.2-3.3-4.7-4c-1.1-0.2-1.6-0.5-1.6-1.1 s0.5-1,1.5-1c1.2,0,2.5,0.4,3.7,1.1l0.6-2.5c-0.7-0.4-2.3-1.2-4.3-1.2c-3.5,0-4.9,2-4.9,3.9c0,1.8,1.1,3.5,4.3,4.1 c1.4,0.2,2,0.6,2,1.3c0,0.8-0.6,1.1-1.7,1.1c-1.9,0-3.3-0.8-4.4-1.5l-0.6,2.6c0.9,0.5,2.6,1.5,5.1,1.5 C147.8,34.2,149.5,32.4,149.5,29.8 M132.9,25.4c0,0.3,0,0.5,0,0.5h-4.3c0.3-1.7,1.3-2.3,2.3-2.3C132.2,23.5,132.9,24.3,132.9,25.4 M136.5,26.1c0-2.9-2.5-5-5.7-5c-3.4,0-6.4,2.6-6.4,6.4s2.6,6.6,6.7,6.6c2.2,0,4.1-0.6,5.1-1.6V30c-0.9,0.8-2.6,1.4-3.9,1.4 c-3,0-4-1.7-4-3.6h7.9C136.4,27.4,136.5,26.7,136.5,26.1 M123.1,21.6h-3.8l-3.2,7.9l-3.1-7.9h-3.8l5.4,12.2h3.1L123.1,21.6z M100.6,33.6v-12h-3.7l-0.1,1.6c-1-1.5-2.8-2.1-4.4-2.1c-3.2,0-5.8,2.6-5.8,6.6c0,3.8,2.5,6.5,5.8,6.5c1.5,0,3.1-0.5,4.2-1.8V34 c0,2.8-1.6,3.9-3.5,3.9s-3.5-0.4-5.3-1.6v3c1.4,0.9,3.6,1.5,5.5,1.5C96.5,40.8,100.6,39.6,100.6,33.6 M90.7,27.7 c0-2.4,1.5-3.6,3.1-3.6c1.5,0,3.1,1.2,3.1,3.6c0,2.5-1.5,3.6-3.1,3.6C92.1,31.3,90.7,30,90.7,27.7 M73.2,27.6 c0-2.3,1.5-3.6,3.1-3.6c1.5,0,3.1,1.1,3.1,3.6s-1.5,3.6-3.1,3.6C74.7,31.3,73.2,30,73.2,27.6 M69.2,27.6c0,3.9,2.5,6.6,5.8,6.6 c1.5,0,3.3-0.6,4.4-2.1l0.1,1.6h3.7V21.6h-3.7l-0.1,1.6c-1-1.5-2.8-2.1-4.4-2.1C71.8,21.1,69.2,23.8,69.2,27.6"></path> </g> </g> </svg> 