<?xml version="1.0" encoding="UTF-8"?> <svg xmlns="http://www.w3.org/2000/svg" xmlns:xlink="http://www.w3.org/1999/xlink" id="Group_58" data-name="Group 58" width="73.925" height="73.925" viewBox="0 0 73.925 73.925"><defs><clipPath id="clip-path"><rect id="Rectangle_43" data-name="Rectangle 43" width="73.925" height="73.925" fill="#9a7f59"></rect></clipPath></defs><path id="Path_106" data-name="Path 106" d="M228.114,207.611h8.521l-4.295-12.292Z" transform="translate(-195.378 -167.29)" fill="#9a7f59"></path><g id="Group_40" data-name="Group 40"><g id="Group_39" data-name="Group 39" clip-path="url(#clip-path)"><path id="Path_107" data-name="Path 107" d="M0,73.925H73.925V0H0Zm50.794-46.6,5.028-6.433a.934.934,0,0,1,1.311-.161L59.4,22.5a.934.934,0,0,1,.161,1.311l-5.029,6.433a.934.934,0,0,1-1.312.161l-2.266-1.771a.934.934,0,0,1-.161-1.311M14.7,22.5l2.266-1.771a.934.934,0,0,1,1.312.161l5.029,6.433a.934.934,0,0,1-.161,1.311L20.879,30.4a.934.934,0,0,1-1.312-.161l-5.029-6.433A.934.934,0,0,1,14.7,22.5m1.753,25.088-7.592,2.7a.934.934,0,0,1-1.193-.568L6.705,47a.934.934,0,0,1,.568-1.193l7.592-2.7a.934.934,0,0,1,1.193.568l.962,2.71a.934.934,0,0,1-.568,1.193m1.9-12.127-.912,2.727a.935.935,0,0,1-1.182.59L5.617,35.216a.934.934,0,0,1-.59-1.182l.912-2.727a.934.934,0,0,1,1.182-.59l10.639,3.558a.934.934,0,0,1,.59,1.182m28.387,20.4-2.783-8.435H30.117l-2.86,8.435H18.985L33.457,18.289H40.94L55.087,55.86ZM67.394,47l-.962,2.71a.934.934,0,0,1-1.193.568l-7.592-2.7a.934.934,0,0,1-.568-1.193l.962-2.71a.934.934,0,0,1,1.193-.568l7.592,2.7A.934.934,0,0,1,67.394,47m1.088-11.787L57.844,38.775a.935.935,0,0,1-1.182-.59l-.912-2.727a.934.934,0,0,1,.59-1.182l10.639-3.558a.934.934,0,0,1,1.182.59l.912,2.727a.934.934,0,0,1-.59,1.182" fill="#9a7f59"></path></g></g></svg> 