<?xml version="1.0" encoding="UTF-8"?> <svg xmlns="http://www.w3.org/2000/svg" xmlns:xlink="http://www.w3.org/1999/xlink" width="151.837" height="76.023" viewBox="0 0 151.837 76.023"><defs><clipPath id="clip-path"><rect id="Rectangle_49" data-name="Rectangle 49" width="151.837" height="76.023" fill="#9a7f59"></rect></clipPath></defs><g id="Group_48" data-name="Group 48" clip-path="url(#clip-path)"><path id="Path_154" data-name="Path 154" d="M24.092,42.667a1.2,1.2,0,0,0-.818-.309H19.835v2.7h3.29a1.584,1.584,0,0,0,.9-.271,1.226,1.226,0,0,0,.409-1.089,1.314,1.314,0,0,0-.346-1.026m.617,6.581a1.083,1.083,0,0,0-.889-.431H19.835v2.945h3.811a1.442,1.442,0,0,0,1-.372,1.357,1.357,0,0,0,.409-1.063,1.674,1.674,0,0,0-.346-1.078m0,0a1.083,1.083,0,0,0-.889-.431H19.835v2.945h3.811a1.442,1.442,0,0,0,1-.372,1.357,1.357,0,0,0,.409-1.063,1.674,1.674,0,0,0-.346-1.078m-.68-4.465a1.226,1.226,0,0,0,.409-1.089,1.314,1.314,0,0,0-.346-1.026,1.2,1.2,0,0,0-.818-.309H19.835v2.7h3.29a1.584,1.584,0,0,0,.9-.271M37.874.38a37.87,37.87,0,1,0,37.87,37.87A37.871,37.871,0,0,0,37.874.38M28.1,54.754a6.34,6.34,0,0,1-2.019.8,10.916,10.916,0,0,1-2.435.26H15.009V38.25H25.2a3.511,3.511,0,0,1,1.658.394,4.2,4.2,0,0,1,1.26,1.03,4.65,4.65,0,0,1,.807,1.435,4.881,4.881,0,0,1,.283,1.643,4.773,4.773,0,0,1-.628,2.365,3.973,3.973,0,0,1-1.9,1.7,4.277,4.277,0,0,1,3.268,4.5,3.991,3.991,0,0,1-.494,2.041,4.043,4.043,0,0,1-1.361,1.4m17.976,1.063h-5.2l-2.993-5.294-2.993,5.294H29.668l5.666-8.659L29.471,38.25h5.22l3.194,5.543,3.19-5.543h5.2l-5.863,8.908Zm1.718-27.665a.6.6,0,0,1-.112.078,1.138,1.138,0,0,1-1.576-.364,1.151,1.151,0,0,1-.123-.955c-.026-.022-.056-.041-.086-.063a.77.77,0,0,1-.138.1A1.146,1.146,0,0,1,44.1,25.513c-.011-.011-.026-.022-.037-.033a1.061,1.061,0,0,1-.212.175l-.015.011a1.142,1.142,0,0,1-1.58-.364,1.129,1.129,0,0,1-.123-.941c-.037-.019-.074-.037-.108-.056-.037.03-.074.056-.112.082a1.156,1.156,0,0,1-1.361-.108,3.929,3.929,0,0,0-.394,1.483,16.142,16.142,0,0,0,.487,2.023c.115.606-2.777,3.093-2.777,3.09h0s-2.892-2.484-2.777-3.09a16.142,16.142,0,0,0,.487-2.023,3.929,3.929,0,0,0-.394-1.483,1.156,1.156,0,0,1-1.361.108c-.037-.026-.074-.052-.112-.082-.033.019-.071.037-.108.056a1.129,1.129,0,0,1-.123.941,1.142,1.142,0,0,1-1.58.364l-.015-.011a1.061,1.061,0,0,1-.212-.175c-.011.011-.026.022-.037.033a1.146,1.146,0,0,1-1.654,1.435.77.77,0,0,1-.138-.1c-.03.022-.059.041-.086.063a1.151,1.151,0,0,1-.123.955,1.138,1.138,0,0,1-1.576.364.6.6,0,0,1-.112-.078l-.1.071a1.144,1.144,0,0,1-1.706,1.29.988.988,0,0,1-.171-.13c-.026.015-.048.026-.071.037a1.147,1.147,0,0,1-1.535,1.454.745.745,0,0,1-.108-.056c-.007-.03-.011-.063-.019-.093,0,.03.011.059.015.093l-.033-.022c-.026-.193-.045-.39-.059-.591a6.853,6.853,0,0,1-.041-.732c0-.041,0-.078,0-.119,0-.071,0-.141,0-.212s0-.145,0-.219A13.749,13.749,0,0,1,31,17.229v0a2.277,2.277,0,0,1,1.212-.309c1.547,0,2.826,2.829,3.272,3.186a0,0,0,0,0,0,0,1.692,1.692,0,0,0,.424.242,3.331,3.331,0,0,0,.5.149h0a1.281,1.281,0,0,0,.863-.268.294.294,0,0,0,.1-.208V19.9a2.233,2.233,0,0,1-.219-.086s-.011,0-.015-.007c-.022-.011-.041-.019-.059-.03l-.022-.011c-.019-.011-.037-.019-.056-.03a.081.081,0,0,0-.019-.011l-.059-.037a1.561,1.561,0,0,1-.182-.138c-.007,0-.015-.011-.022-.015s-.03-.026-.045-.041l-.022-.022a.446.446,0,0,1-.045-.041l-.022-.022a.423.423,0,0,0-.041-.041.161.161,0,0,0-.022-.026c-.026-.03-.048-.056-.071-.086a.162.162,0,0,1-.022-.026.165.165,0,0,1-.03-.041c-.011-.011-.019-.022-.03-.033a.391.391,0,0,0-.026-.041c-.007-.015-.019-.026-.026-.041a.25.25,0,0,1-.026-.041.277.277,0,0,1-.026-.045.226.226,0,0,1-.026-.037c-.007-.019-.019-.033-.026-.052a.151.151,0,0,1-.019-.033c-.015-.03-.03-.056-.045-.086a.256.256,0,0,0-.011-.03.453.453,0,0,1-.026-.063c-.007-.011-.011-.026-.019-.037l-.022-.056c0-.015-.007-.026-.011-.041s-.015-.041-.022-.059-.007-.026-.011-.037A.392.392,0,0,1,36,18.386a.256.256,0,0,1-.011-.03l-.022-.1s0-.007,0-.011c-.007-.03-.011-.063-.019-.093,0-.011,0-.022,0-.033s-.007-.048-.011-.071a.126.126,0,0,1,0-.037c0-.026-.007-.048-.011-.071V17.9a.556.556,0,0,1-.007-.078v-.033c0-.037,0-.074,0-.108a2.152,2.152,0,0,1,1.948-2.294h.033a2.152,2.152,0,0,1,1.948,2.294c0,.033,0,.071,0,.108v.033a.555.555,0,0,1-.007.078v.037c0,.022-.007.045-.011.071a.127.127,0,0,1,0,.037c0,.022-.007.048-.011.071s0,.022,0,.033c-.007.03-.011.063-.019.093a.014.014,0,0,1,0,.011l-.022.1a.256.256,0,0,1-.011.03.392.392,0,0,1-.019.071c0,.011-.007.026-.011.037s-.015.041-.022.059-.007.026-.011.041l-.022.056c-.007.011-.011.026-.019.037a.453.453,0,0,1-.026.063.256.256,0,0,0-.011.03c-.015.03-.03.056-.045.086a.15.15,0,0,1-.019.033c-.007.019-.019.033-.026.052a.225.225,0,0,1-.026.037.277.277,0,0,1-.026.045.25.25,0,0,1-.026.041c-.007.015-.019.026-.026.041a.392.392,0,0,0-.026.041c-.011.011-.019.022-.03.033a.165.165,0,0,1-.03.041.162.162,0,0,1-.022.026c-.022.03-.045.056-.071.086a.162.162,0,0,0-.022.026.425.425,0,0,0-.041.041l-.022.022a.447.447,0,0,1-.045.041l-.022.022c-.015.015-.03.026-.045.041s-.015.011-.022.015a1.561,1.561,0,0,1-.182.138l-.059.037a.081.081,0,0,0-.019.011c-.019.011-.037.019-.056.03l-.022.011c-.019.011-.037.019-.059.03,0,0-.011,0-.015.007a2.233,2.233,0,0,1-.219.086v.13a.294.294,0,0,0,.1.208,1.285,1.285,0,0,0,.866.268,3.331,3.331,0,0,0,.5-.149,1.692,1.692,0,0,0,.424-.242,0,0,0,0,0,0,0c.446-.357,1.725-3.186,3.272-3.186a2.277,2.277,0,0,1,1.212.309v0a13.749,13.749,0,0,1,6.874,11.693c0,.074,0,.145,0,.219s0,.141,0,.212c0,.041,0,.078,0,.119a6.852,6.852,0,0,1-.041.732c-.015.2-.033.4-.059.591l-.033.022c0-.033.011-.063.015-.093-.007.03-.011.063-.019.093a.745.745,0,0,1-.108.056,1.147,1.147,0,0,1-1.535-1.454c-.022-.011-.045-.022-.071-.037a.988.988,0,0,1-.171.13,1.144,1.144,0,0,1-1.706-1.29l-.1-.071M60.735,55.817H47.942V38.25h4.826V51.612h7.967Zm-36.915-7H19.835v2.945h3.811a1.442,1.442,0,0,0,1-.372,1.357,1.357,0,0,0,.409-1.063,1.674,1.674,0,0,0-.346-1.078,1.083,1.083,0,0,0-.889-.431m.208-4.034a1.226,1.226,0,0,0,.409-1.089,1.314,1.314,0,0,0-.346-1.026,1.2,1.2,0,0,0-.818-.309H19.835v2.7h3.29a1.584,1.584,0,0,0,.9-.271" transform="translate(0 -0.239)" fill="#9a7f59"></path><path id="Path_155" data-name="Path 155" d="M284.792,73.06a1.222,1.222,0,0,0-1.312-1.252h-1.725v2.514h1.725a1.23,1.23,0,0,0,1.312-1.262" transform="translate(-177.003 -45.111)" fill="#9a7f59"></path><path id="Path_156" data-name="Path 156" d="M267.04,99.542h-1.515v1.671h1.515a.84.84,0,1,0,0-1.671" transform="translate(-166.807 -62.534)" fill="#9a7f59"></path><path id="Path_157" data-name="Path 157" d="M276.8,129.483a2.428,2.428,0,1,0,2.416-2.672,2.435,2.435,0,0,0-2.416,2.672" transform="translate(-173.887 -79.665)" fill="#9a7f59"></path><path id="Path_158" data-name="Path 158" d="M299.659,76.86a2.686,2.686,0,1,0-2.416-2.672,2.441,2.441,0,0,0,2.416,2.672" transform="translate(-186.733 -44.927)" fill="#9a7f59"></path><path id="Path_159" data-name="Path 159" d="M358.735,128.354a1.222,1.222,0,0,0-1.311-1.252H355.7v2.514h1.726a1.23,1.23,0,0,0,1.311-1.262" transform="translate(-223.455 -79.847)" fill="#9a7f59"></path><path id="Path_160" data-name="Path 160" d="M241.93,0a38.011,38.011,0,1,0,38.011,38.011A38.011,38.011,0,0,0,241.93,0m10.628,26.4a.4.4,0,0,1,.434-.434h1.814a3.289,3.289,0,1,1,0,6.577h-1.814a.4.4,0,0,1-.434-.434Zm-6.981.059a.537.537,0,0,1,.532-.532.523.523,0,0,1,.434.217l3.658,5.019V26.332a.413.413,0,0,1,.4-.4.408.408,0,0,1,.414.4v5.749a.508.508,0,0,1-.917.3L246.4,27.239v4.94a.412.412,0,0,1-.4.4.408.408,0,0,1-.414-.4Zm3.222,9.8v5.692a.958.958,0,1,1-1.916,0V36.262a.958.958,0,1,1,1.916,0m-3.586.557a.887.887,0,0,1-.891.891.908.908,0,0,1-.613-.234,1.79,1.79,0,0,0-1.237-.512,2.151,2.151,0,1,0,1.37,3.854v-.579h-.969a.825.825,0,0,1-.8-.825.864.864,0,0,1,.8-.858H244.9a.856.856,0,0,1,.858.88v1.337a1.461,1.461,0,0,1-.535,1.236,4.241,4.241,0,0,1-2.752.947,3.847,3.847,0,1,1,0-7.686,3.462,3.462,0,0,1,2.417.869.867.867,0,0,1,.323.679m-1.8,10.071v5.749a.508.508,0,0,1-.917.3L238.793,47.8v4.94a.413.413,0,0,1-.4.4.408.408,0,0,1-.414-.4V47.018a.537.537,0,0,1,.533-.533.524.524,0,0,1,.433.217l3.658,5.019V46.89a.413.413,0,0,1,.4-.4.409.409,0,0,1,.414.4m-2.386-21.031a3.212,3.212,0,0,1,3.264,3.4,3.267,3.267,0,1,1-6.528,0,3.207,3.207,0,0,1,3.264-3.4m-3.225,10.348a.813.813,0,0,1-.8.8h-2.818v1.236h2.74a.813.813,0,0,1,0,1.627h-2.74v1.337H237a.806.806,0,0,1,.8.8.816.816,0,0,1-.8.813h-3.72a.911.911,0,0,1-1.013-1.014v-5.4a.911.911,0,0,1,1.013-1.014H237a.816.816,0,0,1,.8.813m-1.113,13.612a3.267,3.267,0,1,1-3.264-3.4,3.212,3.212,0,0,1,3.264,3.4M232.039,26.4a.394.394,0,0,1,.434-.434h2.209a1.916,1.916,0,0,1,2.061,1.982,1.807,1.807,0,0,1-1.568,1.893l1.509,2.11a.416.416,0,0,1,.079.257.4.4,0,0,1-.394.374.421.421,0,0,1-.345-.167l-1.716-2.485h-1.45v2.248a.412.412,0,0,1-.4.4.408.408,0,0,1-.414-.4Zm-1.06,14.974a1.026,1.026,0,0,1,.2.6.96.96,0,0,1-.947.947.981.981,0,0,1-.78-.4L227.9,40.306h-1.08v1.649a.958.958,0,1,1-1.916,0V36.407a.911.911,0,0,1,1.013-1.014h2.707a2.393,2.393,0,0,1,2.584,2.473,2.289,2.289,0,0,1-1.27,2.15Zm-2.056,8a.365.365,0,1,1,0,.73h-3.1v2.633a.413.413,0,0,1-.4.4.408.408,0,0,1-.414-.4V46.959a.394.394,0,0,1,.434-.434h3.55a.365.365,0,1,1,0,.729h-3.165v2.12Zm-.8-23.516a3.057,3.057,0,0,1,2.268.907.348.348,0,0,1,.109.266.368.368,0,0,1-.375.375.387.387,0,0,1-.276-.109,2.435,2.435,0,0,0-1.725-.71,2.681,2.681,0,0,0,0,5.354,2.594,2.594,0,0,0,1.765-.71V29.892h-1.933a.365.365,0,0,1,0-.73h2.317a.4.4,0,0,1,.434.444v1.607a.65.65,0,0,1-.217.542,3.455,3.455,0,0,1-2.366.917,3.407,3.407,0,0,1,0-6.814M240.088,71.3a25.845,25.845,0,0,1-25.793-24.2l-4.1,1.555,4.355-7.2,1.087-1.8,1.406,2.486V40.13h1.669v4.963l2.011,3.555-3.581-1.358a25.974,25.974,0,0,0,25.874,23.692q.669,0,1.329-.033a25.984,25.984,0,0,1-4.26.349m7.954-18.807a2.213,2.213,0,0,0,1.676-.75.379.379,0,0,1,.3-.128A.385.385,0,0,1,250.4,52a.372.372,0,0,1-.1.267,2.95,2.95,0,0,1-2.258.956,3.4,3.4,0,0,1,0-6.8,2.97,2.97,0,0,1,2.258.956.372.372,0,0,1,.1.267.391.391,0,0,1-.384.384.379.379,0,0,1-.3-.128,2.262,2.262,0,0,0-1.676-.749,2.678,2.678,0,0,0,0,5.344m2.093-10.681v-5.4a.911.911,0,0,1,1.014-1.014h3.72a.808.808,0,0,1,0,1.615h-2.818v1.236h2.74a.813.813,0,0,1,0,1.627h-2.74v1.337h2.818a.806.806,0,0,1,.8.8.816.816,0,0,1-.8.813h-3.72a.911.911,0,0,1-1.014-1.014m2.245,10.928a.413.413,0,0,1-.4.4.408.408,0,0,1-.414-.4V46.89a.409.409,0,0,1,.414-.4.413.413,0,0,1,.4.4Zm5.453-3.363a.365.365,0,1,1,0,.73h-3.1v2.268H257.9a.365.365,0,1,1,0,.73h-3.55a.394.394,0,0,1-.434-.434V46.959a.394.394,0,0,1,.434-.434h3.55a.365.365,0,1,1,0,.729h-3.165v2.12Zm6.025,3.767a.42.42,0,0,1-.345-.168L261.8,50.489h-1.45v2.248a.413.413,0,0,1-.4.4.408.408,0,0,1-.414-.4V46.959a.4.4,0,0,1,.434-.434h2.209a1.916,1.916,0,0,1,2.061,1.982,1.807,1.807,0,0,1-1.568,1.894l1.509,2.11a.415.415,0,0,1,.079.256.4.4,0,0,1-.394.375m5.65-.039h-3.55a.4.4,0,0,1-.434-.434V46.959a.394.394,0,0,1,.434-.434h3.55a.365.365,0,1,1,0,.729h-3.165v2.12h3.1a.365.365,0,1,1,0,.73h-3.1v2.268h3.165a.365.365,0,1,1,0,.73" transform="translate(-128.105)" fill="#9a7f59"></path><path id="Path_161" data-name="Path 161" d="M340.9,74.371a2.4,2.4,0,0,0-2.524-2.564h-1.43v5.118h1.43a2.418,2.418,0,0,0,2.524-2.554" transform="translate(-211.675 -45.11)" fill="#9a7f59"></path></g></svg> 