<?xml version="1.0" encoding="UTF-8"?> <svg xmlns="http://www.w3.org/2000/svg" xmlns:xlink="http://www.w3.org/1999/xlink" width="152.045" height="76.023" viewBox="0 0 152.045 76.023"><defs><clipPath id="clip-path"><rect id="Rectangle_47" data-name="Rectangle 47" width="152.045" height="76.023" fill="#9a7f59"></rect></clipPath></defs><g id="Group_44" data-name="Group 44" clip-path="url(#clip-path)"><path id="Path_131" data-name="Path 131" d="M57.559,115.343a1.227,1.227,0,0,0,.41-1.093,1.33,1.33,0,0,0-.347-1.03,1.2,1.2,0,0,0-.821-.31H53.35v2.709h3.3a1.593,1.593,0,0,0,.907-.276" transform="translate(-33.442 -70.777)" fill="#9a7f59"></path><path id="Path_132" data-name="Path 132" d="M57.35,130.28h-4v2.955h3.825a1.43,1.43,0,0,0,1-.373,1.357,1.357,0,0,0,.41-1.067,1.669,1.669,0,0,0-.347-1.078,1.091,1.091,0,0,0-.892-.437" transform="translate(-33.442 -81.666)" fill="#9a7f59"></path><path id="Path_133" data-name="Path 133" d="M38.013,0A38.011,38.011,0,1,0,76.023,38.009,38.013,38.013,0,0,0,38.013,0M28.2,54.574a6.432,6.432,0,0,1-2.022.81,11.243,11.243,0,0,1-2.448.257H15.064V38.009H25.3a3.482,3.482,0,0,1,1.664.4,4.151,4.151,0,0,1,1.265,1.03,4.667,4.667,0,0,1,.81,1.44,4.92,4.92,0,0,1,.284,1.653,4.777,4.777,0,0,1-.631,2.37,4,4,0,0,1-1.9,1.7,4.683,4.683,0,0,1,2.4,1.552,4.628,4.628,0,0,1,.881,2.967A3.851,3.851,0,0,1,28.2,54.574m18.042,1.067H41.028l-3-5.314-3,5.314H29.778l5.687-8.691L29.58,38.009h5.239l3.205,5.564,3.2-5.564h5.217L40.558,46.95Zm1.724-27.763q-.05.039-.112.078a1.149,1.149,0,0,1-1.7-1.328c-.03-.019-.06-.041-.09-.06a1.261,1.261,0,0,1-.134.1,1.153,1.153,0,0,1-1.664-1.444.261.261,0,0,0-.037-.03,1.4,1.4,0,0,1-.213.175L44,25.382a1.15,1.15,0,0,1-1.709-1.313c-.037-.019-.075-.034-.108-.052l-.112.078a1.149,1.149,0,0,1-1.366-.108,3.96,3.96,0,0,0-.4,1.489,16.287,16.287,0,0,0,.489,2.034c.116.608-2.787,3.1-2.787,3.1h0s-2.9-2.493-2.787-3.1a16.287,16.287,0,0,0,.489-2.034,3.96,3.96,0,0,0-.4-1.489,1.149,1.149,0,0,1-1.366.108l-.112-.078c-.034.019-.071.034-.108.052a1.128,1.128,0,0,1-.123.948,1.153,1.153,0,0,1-1.586.366l-.015-.011a1.4,1.4,0,0,1-.213-.175.261.261,0,0,0-.037.03,1.152,1.152,0,0,1-1.661,1.444,1.014,1.014,0,0,1-.138-.1c-.03.019-.06.041-.086.06a1.152,1.152,0,0,1-1.705,1.328q-.062-.039-.112-.078l-.1.067a1.149,1.149,0,0,1-1.713,1.3,1.242,1.242,0,0,1-.172-.134c-.026.015-.049.026-.071.041a1.151,1.151,0,0,1-1.541,1.459c-.034-.019-.071-.037-.108-.056-.007-.034-.011-.063-.019-.1,0,.034.011.063.015.093-.011-.007-.022-.011-.034-.019-.022-.2-.045-.4-.06-.593a6.9,6.9,0,0,1-.041-.739c0-.037,0-.078,0-.116,0-.071,0-.142,0-.213s0-.149,0-.224a13.7,13.7,0,0,1,1.955-6.866,13.852,13.852,0,0,1,4.944-4.866,2.281,2.281,0,0,1,1.216-.306c1.552,0,2.836,2.84,3.284,3.2l0,0a1.694,1.694,0,0,0,.425.239,2.955,2.955,0,0,0,.5.149h0a1.266,1.266,0,0,0,.866-.269.287.287,0,0,0,.1-.205v-.134a1.582,1.582,0,0,1-.22-.086.028.028,0,0,1-.015-.007.3.3,0,0,1-.06-.03.053.053,0,0,0-.022-.007l-.056-.034a.082.082,0,0,0-.019-.011l-.056-.034,0,0a2.089,2.089,0,0,1-.183-.134c-.007-.007-.015-.011-.022-.019a.446.446,0,0,1-.045-.041.1.1,0,0,1-.022-.019c-.015-.015-.03-.026-.045-.041s-.015-.019-.022-.026l-.041-.041c-.007-.007-.015-.019-.022-.026-.026-.026-.049-.056-.071-.082a.163.163,0,0,0-.022-.026.392.392,0,0,0-.03-.041.227.227,0,0,1-.026-.037.284.284,0,0,1-.03-.041c-.007-.015-.019-.026-.026-.041a.227.227,0,0,1-.026-.037.278.278,0,0,1-.026-.045.251.251,0,0,0-.026-.041c-.007-.015-.019-.034-.026-.052a.151.151,0,0,1-.019-.034c-.015-.026-.03-.056-.045-.086,0-.011-.007-.019-.011-.03a.322.322,0,0,1-.026-.063.133.133,0,0,1-.015-.034c-.011-.022-.019-.041-.026-.06s-.007-.026-.011-.037-.015-.041-.022-.063-.007-.022-.011-.037a.451.451,0,0,1-.019-.067.257.257,0,0,0-.011-.03l-.022-.1c0-.007,0-.011,0-.015-.007-.03-.011-.06-.019-.09,0-.011,0-.022,0-.034s-.007-.049-.011-.075a.115.115,0,0,1,0-.037.414.414,0,0,1-.007-.071.127.127,0,0,1,0-.037c0-.026,0-.052-.007-.078v-.03c0-.037,0-.075,0-.112a2.154,2.154,0,0,1,1.955-2.3h.034a2.154,2.154,0,0,1,1.955,2.3c0,.037,0,.075,0,.112v.03c0,.026,0,.052,0,.078a.127.127,0,0,0,0,.037.509.509,0,0,0-.007.071c0,.015,0,.026-.007.037s-.007.049-.011.075,0,.022,0,.034c-.007.03-.011.06-.019.09a.028.028,0,0,1,0,.015l-.022.1a.257.257,0,0,0-.011.03.45.45,0,0,1-.019.067c0,.015-.007.026-.011.037s-.015.041-.022.063-.007.026-.011.037-.015.037-.022.06a.132.132,0,0,0-.015.034c-.011.022-.019.045-.03.063s-.007.019-.011.03c-.015.03-.03.06-.045.086a.151.151,0,0,1-.019.034c-.007.019-.019.037-.026.052a.251.251,0,0,1-.026.041.278.278,0,0,1-.026.045.226.226,0,0,1-.026.037.251.251,0,0,1-.026.041c-.007.015-.019.026-.026.041s-.019.026-.03.037l-.03.041a.162.162,0,0,0-.022.026c-.022.026-.045.056-.071.082-.007.007-.015.019-.022.026l-.041.041c-.007.007-.015.019-.022.026s-.03.026-.045.041a.1.1,0,0,1-.022.019.448.448,0,0,1-.045.041c-.007.007-.015.011-.022.019a2.089,2.089,0,0,1-.183.134v0c-.022.011-.041.022-.06.034l-.019.011-.056.034a.053.053,0,0,0-.022.007.408.408,0,0,1-.056.03c-.007,0-.011.007-.019.007a1.581,1.581,0,0,1-.22.086v.134a.287.287,0,0,0,.1.205,1.27,1.27,0,0,0,.869.269,2.955,2.955,0,0,0,.5-.149,1.694,1.694,0,0,0,.425-.239l0,0c.448-.358,1.731-3.2,3.284-3.2a2.273,2.273,0,0,1,1.216.306h0a13.793,13.793,0,0,1,6.9,11.732c0,.075,0,.149,0,.224s0,.142,0,.213c0,.037,0,.078,0,.116a6.893,6.893,0,0,1-.041.739c-.015.2-.034.4-.06.593-.011.007-.022.011-.034.019,0-.03.011-.06.015-.093-.007.034-.011.063-.019.1l-.108.056a1.151,1.151,0,0,1-1.541-1.459c-.022-.015-.045-.026-.071-.041a1.242,1.242,0,0,1-.172.134,1.149,1.149,0,0,1-1.713-1.3l-.1-.067M60.958,55.641H48.118V38.009h4.844V51.421h8Z" fill="#9a7f59"></path><path id="Path_134" data-name="Path 134" d="M241.743,0a38.011,38.011,0,1,0,38.009,38.009A38.013,38.013,0,0,0,241.743,0m0,74.9a36.892,36.892,0,1,1,36.89-36.894A36.934,36.934,0,0,1,241.743,74.9" transform="translate(-127.707)" fill="#9a7f59"></path><path id="Path_135" data-name="Path 135" d="M243.655,80.657h-3.995v-6.7h-2.419v8.808h6.413Z" transform="translate(-148.714 -46.36)" fill="#9a7f59"></path><path id="Path_136" data-name="Path 136" d="M257.584,81.041h2.345l.534,1.724h2.555l-3.275-8.808h-1.96l-3.287,8.808h2.568Zm1.178-4.565.781,2.953h-1.6Z" transform="translate(-159.529 -46.36)" fill="#9a7f59"></path><path id="Path_137" data-name="Path 137" d="M287.373,82.765l3.238-8.808h-2.543l-1.7,5.769-1.724-5.769h-2.555l3.275,8.808Z" transform="translate(-176.827 -46.36)" fill="#9a7f59"></path><rect id="Rectangle_46" data-name="Rectangle 46" width="2.419" height="8.808" transform="translate(114.442 27.598)" fill="#9a7f59"></rect><path id="Path_138" data-name="Path 138" d="M323.64,80.657h-3.995v-6.7h-2.419v8.808h6.413Z" transform="translate(-198.852 -46.36)" fill="#9a7f59"></path><path id="Path_139" data-name="Path 139" d="M343.188,80.657h-3.995v-6.7h-2.419v8.808h6.413Z" transform="translate(-211.106 -46.36)" fill="#9a7f59"></path><path id="Path_140" data-name="Path 140" d="M358.74,79.267h3.2v-1.96h-3.2v-1.24h3.746V73.958h-6.165v8.808H362.6V80.657H358.74Z" transform="translate(-223.359 -46.36)" fill="#9a7f59"></path><path id="Path_141" data-name="Path 141" d="M243.941,106.276a3.984,3.984,0,0,0-1.39-.943,4.959,4.959,0,0,0-1.923-.347h-3.386v8.808h3.386a5.024,5.024,0,0,0,1.824-.316,4.027,4.027,0,0,0,1.4-.893,3.938,3.938,0,0,0,.9-1.39,4.972,4.972,0,0,0,.316-1.817,5.039,5.039,0,0,0-.285-1.706,3.975,3.975,0,0,0-.843-1.4m-1.458,4.019a2.141,2.141,0,0,1-.384.732,1.761,1.761,0,0,1-.627.484,1.965,1.965,0,0,1-.843.174h-.968v-4.59h.968a2.007,2.007,0,0,1,.831.168,1.767,1.767,0,0,1,.626.465,2.083,2.083,0,0,1,.391.719,3.016,3.016,0,0,1,.137.93,3.092,3.092,0,0,1-.131.918" transform="translate(-148.714 -65.81)" fill="#9a7f59"></path><path id="Path_142" data-name="Path 142" d="M263.5,110.3h3.2v-1.96h-3.2v-1.24h3.746v-2.109h-6.165v8.808h6.277v-2.109H263.5Z" transform="translate(-163.656 -65.81)" fill="#9a7f59"></path><path id="Path_143" data-name="Path 143" d="M293.27,109.184a3.405,3.405,0,0,0-.837-.527,9.076,9.076,0,0,0-1.1-.409q-.385-.124-.688-.211a3.949,3.949,0,0,1-.515-.179,1.065,1.065,0,0,1-.322-.2.385.385,0,0,1-.112-.285.347.347,0,0,1,.192-.335,1.131,1.131,0,0,1,.515-.1,2.716,2.716,0,0,1,.812.13,7.018,7.018,0,0,1,.751.279,6.844,6.844,0,0,1,.77.4l1.042-2c-.2-.1-.422-.2-.67-.316a8.42,8.42,0,0,0-.8-.31,7.666,7.666,0,0,0-.887-.236,4.768,4.768,0,0,0-.943-.093,4,4,0,0,0-1.246.192,3.257,3.257,0,0,0-1.049.565,2.646,2.646,0,0,0-.725.931,2.955,2.955,0,0,0-.267,1.29,2.581,2.581,0,0,0,.13.856,1.851,1.851,0,0,0,.4.664,2.715,2.715,0,0,0,.694.521,6.477,6.477,0,0,0,1,.428q.4.137.75.235c.236.067.444.132.626.2a1.424,1.424,0,0,1,.428.229.4.4,0,0,1,.155.317.322.322,0,0,1-.155.279,1.038,1.038,0,0,1-.552.106,3.583,3.583,0,0,1-1.024-.149,6.408,6.408,0,0,1-.9-.335,7.227,7.227,0,0,1-.905-.484l-1.042,2.121a6.184,6.184,0,0,0,.862.421,8.676,8.676,0,0,0,.968.323,8.443,8.443,0,0,0,1.011.211,6.851,6.851,0,0,0,.993.075,5.228,5.228,0,0,0,1.209-.143,3.24,3.24,0,0,0,1.08-.465,2.387,2.387,0,0,0,.769-.862,2.775,2.775,0,0,0,.291-1.333,2.671,2.671,0,0,0-.186-1.055,2.029,2.029,0,0,0-.534-.738" transform="translate(-179.784 -65.685)" fill="#9a7f59"></path><path id="Path_144" data-name="Path 144" d="M314.712,104.986h-7.493v2.109h2.543v6.7h2.419v-6.7h2.531Z" transform="translate(-192.579 -65.81)" fill="#9a7f59"></path><path id="Path_145" data-name="Path 145" d="M328.589,104.986l-3.287,8.808h2.568l.521-1.724h2.345l.534,1.724h2.555l-3.275-8.808Zm.161,5.471.819-2.953.781,2.953Z" transform="translate(-203.914 -65.81)" fill="#9a7f59"></path><path id="Path_146" data-name="Path 146" d="M356.6,106.276a3.984,3.984,0,0,0-1.39-.943,4.959,4.959,0,0,0-1.923-.347H349.9v8.808h3.386a5.024,5.024,0,0,0,1.824-.316,4.028,4.028,0,0,0,1.4-.893,3.938,3.938,0,0,0,.9-1.39,4.974,4.974,0,0,0,.316-1.817,5.039,5.039,0,0,0-.285-1.706,3.975,3.975,0,0,0-.843-1.4m-1.458,4.019a2.14,2.14,0,0,1-.384.732,1.761,1.761,0,0,1-.627.484,1.965,1.965,0,0,1-.843.174h-.968v-4.59h.968a2.007,2.007,0,0,1,.831.168,1.767,1.767,0,0,1,.626.465,2.085,2.085,0,0,1,.391.719,3.018,3.018,0,0,1,.137.93,3.091,3.091,0,0,1-.131.918" transform="translate(-219.336 -65.81)" fill="#9a7f59"></path></g></svg> 