<?xml version="1.0" encoding="UTF-8"?> <svg xmlns="http://www.w3.org/2000/svg" xmlns:xlink="http://www.w3.org/1999/xlink" id="Group_57" data-name="Group 57" width="152.045" height="76.022" viewBox="0 0 152.045 76.022"><defs><clipPath id="clip-path"><rect id="Rectangle_42" data-name="Rectangle 42" width="152.045" height="76.022" fill="#9a7f59"></rect></clipPath></defs><g id="Group_37" data-name="Group 37" clip-path="url(#clip-path)"><path id="Path_94" data-name="Path 94" d="M24.18,42.446a1.2,1.2,0,0,0-.821-.31H19.908v2.705h3.3a1.59,1.59,0,0,0,.907-.272,1.231,1.231,0,0,0,.41-1.093,1.319,1.319,0,0,0-.347-1.03m.619,6.6a1.087,1.087,0,0,0-.892-.433h-4v2.955h3.825a1.447,1.447,0,0,0,1-.373,1.362,1.362,0,0,0,.41-1.067,1.68,1.68,0,0,0-.347-1.082m0,0a1.087,1.087,0,0,0-.892-.433h-4v2.955h3.825a1.447,1.447,0,0,0,1-.373,1.362,1.362,0,0,0,.41-1.067,1.68,1.68,0,0,0-.347-1.082m-.683-4.482a1.231,1.231,0,0,0,.41-1.093,1.319,1.319,0,0,0-.347-1.03,1.2,1.2,0,0,0-.821-.31H19.908v2.705h3.3a1.59,1.59,0,0,0,.907-.272M38.013,0A38.009,38.009,0,1,0,76.022,38.013,38.01,38.01,0,0,0,38.013,0M28.2,54.578a6.363,6.363,0,0,1-2.026.806,10.957,10.957,0,0,1-2.444.261H15.064V38.013H25.3a3.524,3.524,0,0,1,1.664.4,4.217,4.217,0,0,1,1.265,1.034,4.667,4.667,0,0,1,.81,1.44,4.9,4.9,0,0,1,.284,1.649,4.79,4.79,0,0,1-.631,2.373,3.988,3.988,0,0,1-1.9,1.7,4.293,4.293,0,0,1,3.28,4.519,4.005,4.005,0,0,1-.5,2.049,4.058,4.058,0,0,1-1.366,1.4m18.042,1.067H41.028l-3-5.314-3,5.314H29.778l5.687-8.691L29.58,38.013h5.239l3.205,5.564,3.2-5.564h5.217l-5.885,8.941Zm1.724-27.766a.6.6,0,0,1-.112.078,1.142,1.142,0,0,1-1.582-.366,1.155,1.155,0,0,1-.123-.959c-.026-.022-.056-.041-.086-.063a.773.773,0,0,1-.138.1,1.15,1.15,0,0,1-1.661-1.44c-.011-.011-.026-.022-.037-.034a1.065,1.065,0,0,1-.213.175L44,25.382a1.146,1.146,0,0,1-1.586-.366,1.133,1.133,0,0,1-.123-.944c-.037-.019-.075-.037-.108-.056-.037.03-.075.056-.112.082a1.16,1.16,0,0,1-1.366-.108,3.943,3.943,0,0,0-.4,1.489,16.2,16.2,0,0,0,.489,2.03c.116.608-2.787,3.1-2.787,3.1h0s-2.9-2.493-2.787-3.1a16.2,16.2,0,0,0,.489-2.03,3.943,3.943,0,0,0-.4-1.489,1.16,1.16,0,0,1-1.366.108c-.037-.026-.075-.052-.112-.082-.034.019-.071.037-.108.056a1.133,1.133,0,0,1-.123.944,1.146,1.146,0,0,1-1.586.366l-.015-.011a1.065,1.065,0,0,1-.213-.175c-.011.011-.026.022-.037.034a1.15,1.15,0,0,1-1.661,1.44.773.773,0,0,1-.138-.1c-.03.022-.06.041-.086.063a1.155,1.155,0,0,1-.123.959,1.142,1.142,0,0,1-1.582.366.6.6,0,0,1-.112-.078l-.1.071a1.148,1.148,0,0,1-1.713,1.295.991.991,0,0,1-.172-.131c-.026.015-.049.026-.071.037a1.151,1.151,0,0,1-1.541,1.459.747.747,0,0,1-.108-.056c-.007-.03-.011-.063-.019-.093,0,.03.011.06.015.093l-.034-.022c-.026-.194-.045-.392-.06-.593a6.878,6.878,0,0,1-.041-.735c0-.041,0-.078,0-.119,0-.071,0-.142,0-.213s0-.146,0-.22a13.8,13.8,0,0,1,6.9-11.736v0a2.285,2.285,0,0,1,1.216-.31c1.552,0,2.836,2.84,3.284,3.2a0,0,0,0,0,0,0,1.7,1.7,0,0,0,.425.243,3.343,3.343,0,0,0,.5.149h0a1.285,1.285,0,0,0,.866-.269.3.3,0,0,0,.1-.209v-.131a2.242,2.242,0,0,1-.22-.086s-.011,0-.015-.007c-.022-.011-.041-.019-.06-.03l-.022-.011c-.019-.011-.037-.019-.056-.03a.081.081,0,0,0-.019-.011l-.06-.037a1.567,1.567,0,0,1-.183-.138c-.007,0-.015-.011-.022-.015s-.03-.026-.045-.041l-.022-.022a.448.448,0,0,1-.045-.041l-.022-.022a.427.427,0,0,0-.041-.041.163.163,0,0,0-.022-.026c-.026-.03-.049-.056-.071-.086a.162.162,0,0,1-.022-.026.166.166,0,0,1-.03-.041c-.011-.011-.019-.022-.03-.034a.393.393,0,0,0-.026-.041c-.007-.015-.019-.026-.026-.041a.251.251,0,0,1-.026-.041.279.279,0,0,1-.026-.045.226.226,0,0,1-.026-.037c-.007-.019-.019-.034-.026-.052a.151.151,0,0,1-.019-.034c-.015-.03-.03-.056-.045-.086a.259.259,0,0,0-.011-.03.456.456,0,0,1-.026-.063c-.007-.011-.011-.026-.019-.037l-.022-.056c0-.015-.007-.026-.011-.041s-.015-.041-.022-.06-.007-.026-.011-.037a.393.393,0,0,1-.019-.071.259.259,0,0,1-.011-.03l-.022-.1s0-.007,0-.011c-.007-.03-.011-.063-.019-.093,0-.011,0-.022,0-.034s-.007-.049-.011-.071a.127.127,0,0,1,0-.037c0-.026-.007-.049-.011-.071v-.037a.556.556,0,0,1-.007-.078v-.034c0-.037,0-.075,0-.108a2.16,2.16,0,0,1,1.955-2.3h.034a2.16,2.16,0,0,1,1.955,2.3c0,.034,0,.071,0,.108v.034a.557.557,0,0,1-.007.078v.037c0,.022-.007.045-.011.071a.127.127,0,0,1,0,.037c0,.022-.007.049-.011.071s0,.022,0,.034c-.007.03-.011.063-.019.093a.014.014,0,0,1,0,.011l-.022.1a.256.256,0,0,1-.011.03.393.393,0,0,1-.019.071c0,.011-.007.026-.011.037s-.015.041-.022.06-.007.026-.011.041l-.022.056c-.007.011-.011.026-.019.037a.456.456,0,0,1-.026.063.257.257,0,0,0-.011.03c-.015.03-.03.056-.045.086a.151.151,0,0,1-.019.034c-.007.019-.019.034-.026.052a.227.227,0,0,1-.026.037.278.278,0,0,1-.026.045.251.251,0,0,1-.026.041c-.007.015-.019.026-.026.041a.393.393,0,0,0-.026.041c-.011.011-.019.022-.03.034a.166.166,0,0,1-.03.041.162.162,0,0,1-.022.026c-.022.03-.045.056-.071.086a.162.162,0,0,0-.022.026.426.426,0,0,0-.041.041l-.022.022a.448.448,0,0,1-.045.041l-.022.022c-.015.015-.03.026-.045.041s-.015.011-.022.015a1.568,1.568,0,0,1-.183.138l-.06.037a.082.082,0,0,0-.019.011c-.019.011-.037.019-.056.03l-.022.011c-.019.011-.037.019-.06.03,0,0-.011,0-.015.007a2.242,2.242,0,0,1-.22.086v.131a.3.3,0,0,0,.1.209,1.289,1.289,0,0,0,.869.269,3.343,3.343,0,0,0,.5-.149,1.7,1.7,0,0,0,.425-.243,0,0,0,0,0,0,0c.448-.358,1.731-3.2,3.284-3.2a2.285,2.285,0,0,1,1.216.31v0a13.8,13.8,0,0,1,6.9,11.736c0,.075,0,.146,0,.22s0,.142,0,.213c0,.041,0,.078,0,.119a6.877,6.877,0,0,1-.041.735c-.015.2-.034.4-.06.593l-.034.022c0-.034.011-.063.015-.093-.007.03-.011.063-.019.093a.747.747,0,0,1-.108.056,1.151,1.151,0,0,1-1.541-1.459c-.022-.011-.045-.022-.071-.037a.992.992,0,0,1-.172.131,1.148,1.148,0,0,1-1.713-1.295l-.1-.071M60.958,55.645H48.118V38.013h4.844V51.424h8Zm-37.05-7.026h-4v2.955h3.825a1.447,1.447,0,0,0,1-.373,1.362,1.362,0,0,0,.41-1.067,1.68,1.68,0,0,0-.347-1.082,1.087,1.087,0,0,0-.892-.433m.209-4.049a1.231,1.231,0,0,0,.41-1.093,1.319,1.319,0,0,0-.347-1.03,1.2,1.2,0,0,0-.821-.31H19.908v2.705h3.3a1.59,1.59,0,0,0,.907-.272" transform="translate(0 -0.003)" fill="#9a7f59"></path><path id="Path_95" data-name="Path 95" d="M318.64,59.4c-1.368-5.4-4.492-8.031-10.174-8.177-5.876-.15-11.364,1.625-16.781,3.624-2.236.825-4.4,1.838-7.122,2.986.752-.7,1.088-1.07,1.483-1.365,5.619-4.194,11.36-8.21,17.921-10.817A28.226,28.226,0,0,1,310.279,44c4.557-.662,7.79,1.714,8.3,6.295a83,83,0,0,1,.063,9.109" transform="translate(-178.378 -27.512)" fill="#9a7f59"></path><path id="Path_96" data-name="Path 96" d="M360.342,27.9a3.309,3.309,0,0,1-3.348-3.306,3.437,3.437,0,0,1,3.518-3.406,3.38,3.38,0,0,1,3.21,3.467,3.223,3.223,0,0,1-3.38,3.246" transform="translate(-223.781 -13.278)" fill="#9a7f59"></path><path id="Path_97" data-name="Path 97" d="M283.092,101.7a3.176,3.176,0,0,1-3.019-3.28,3.128,3.128,0,0,1,3.086-3.12,2.955,2.955,0,0,1,2.336,1.168h1.459a4.3,4.3,0,0,0-8.094,2.064,4.353,4.353,0,0,0,4.2,4.28,4.242,4.242,0,0,0,3.84-2.213h-1.493a2.967,2.967,0,0,1-2.314,1.1" transform="translate(-174.803 -59.039)" fill="#9a7f59"></path><path id="Path_98" data-name="Path 98" d="M305.614,94.6H303.2v8.31h1.213v-3.28h1.213c1.8,0,2.907-.888,2.907-2.515S307.4,94.6,305.614,94.6m0,3.918h-1.2V95.716h1.19c1.056,0,1.72.493,1.72,1.4s-.642,1.4-1.709,1.4" transform="translate(-190.06 -59.302)" fill="#9a7f59"></path><path id="Path_99" data-name="Path 99" d="M319.693,94.6H318.6l-3.153,8.31h1.28l.922-2.448h2.985l.922,2.448h1.291Zm-1.616,4.75,1.067-3.179h.022l1.056,3.179Z" transform="translate(-197.739 -59.302)" fill="#9a7f59"></path><path id="Path_100" data-name="Path 100" d="M338.829,97.61c-.806-.261-1.2-.6-1.2-1.179A1.157,1.157,0,0,1,338.74,95.3a1.11,1.11,0,0,1,1.168,1.2h1.213a2.229,2.229,0,0,0-2.381-2.314,2.29,2.29,0,0,0-2.325,2.269c0,1.179.452,1.851,2.5,2.549.888.3,1.157.683,1.157,1.291a1.3,1.3,0,0,1-1.336,1.4,1.361,1.361,0,0,1-1.347-1.5H336.18a2.492,2.492,0,0,0,2.56,2.616,2.426,2.426,0,0,0,2.549-2.515c0-1.437-.66-2.112-2.459-2.683" transform="translate(-210.734 -59.039)" fill="#9a7f59"></path><path id="Path_101" data-name="Path 101" d="M283.147,121.214a4.312,4.312,0,1,0,4.358,4.254,4.292,4.292,0,0,0-4.358-4.254m.034,7.512a3.2,3.2,0,1,1,3.112-3.179,3.13,3.13,0,0,1-3.112,3.179" transform="translate(-174.803 -75.983)" fill="#9a7f59"></path><path id="Path_102" data-name="Path 102" d="M308.552,128.726a3.178,3.178,0,0,1-3.019-3.28,3.128,3.128,0,0,1,3.086-3.12,2.961,2.961,0,0,1,2.336,1.168h1.459a4.3,4.3,0,0,0-8.094,2.064,4.351,4.351,0,0,0,4.2,4.28,4.25,4.25,0,0,0,3.84-2.213h-1.493a2.984,2.984,0,0,1-2.314,1.1" transform="translate(-190.762 -75.983)" fill="#9a7f59"></path><path id="Path_103" data-name="Path 103" d="M335.863,121.634l-2.5,6.366-2.493-6.366H328.96v8.306h1.213v-7.015h.022L333,129.941h.731l2.795-7.015h.034v7.015h1.213v-8.306Z" transform="translate(-206.208 -76.246)" fill="#9a7f59"></path><path id="Path_104" data-name="Path 104" d="M363.869,121.634l-1.619,6.209h-.022l-1.582-6.209h-.888l-1.6,6.254h-.022l-1.582-6.254H355.29l2.325,8.306h1.063l1.508-5.8h.022l1.5,5.8h1.067l2.325-8.306Z" transform="translate(-222.713 -76.246)" fill="#9a7f59"></path><path id="Path_105" data-name="Path 105" d="M241.742,76.022A38.011,38.011,0,1,1,255.614,2.611l-.481,1.225a36.7,36.7,0,1,0,23.3,34.175h1.316a38.054,38.054,0,0,1-38.011,38.011" transform="translate(-127.708)" fill="#9a7f59"></path></g></svg> 