<?xml version="1.0" encoding="UTF-8"?> <svg xmlns="http://www.w3.org/2000/svg" xmlns:xlink="http://www.w3.org/1999/xlink" id="Group_56" data-name="Group 56" width="168.875" height="65.676" viewBox="0 0 168.875 65.676"><defs><clipPath id="clip-path"><rect id="Rectangle_41" data-name="Rectangle 41" width="168.875" height="65.676" fill="#9a7f59"></rect></clipPath></defs><g id="Group_35" data-name="Group 35" transform="translate(0 0)" clip-path="url(#clip-path)"><path id="Path_63" data-name="Path 63" d="M53.4,31.552a12.517,12.517,0,0,0,4.564-10.015c0-6.5-4.286-11.767-9.573-11.767a7.786,7.786,0,0,0-1.212.1c-3.413-5-11.03-6.107-17.606-2.359-5.855,3.336-9,9.446-8.054,14.745a10.268,10.268,0,0,0-6.426,12.154,9.732,9.732,0,0,0,8.842,7.171,11.114,11.114,0,0,0,8.594,3.63,12.354,12.354,0,0,0,5.807-1.4L36.2,61.5l7.658-.3s-.2-13.721.945-20.624a6.574,6.574,0,0,0,4.547,1.8,6.268,6.268,0,0,0,6.425-6.1A5.969,5.969,0,0,0,53.4,31.552" transform="translate(-5.43 -1.944)" fill="#9a7f59"></path><path id="Path_64" data-name="Path 64" d="M30.791,59.424A148.261,148.261,0,0,0,0,65.676l63.123-6.713a168.3,168.3,0,0,0-22.529-.3,130.666,130.666,0,0,1,1.34-17.838,8.008,8.008,0,0,0,5.449,2.08c4.254,0,7.706-3.161,7.706-7.054a6.827,6.827,0,0,0-2.851-5.468,14.281,14.281,0,0,0,5.474-11.587c0-7.516-5.139-13.6-11.479-13.6a10.024,10.024,0,0,0-1.454.12C40.69-.475,31.562-1.759,23.667,2.578,16.65,6.434,12.87,13.5,14.014,19.632A11.789,11.789,0,0,0,6.309,33.684a11.572,11.572,0,0,0,10.6,8.293c2.137,2.516,5.948,4.2,10.3,4.2a15.759,15.759,0,0,0,5.285-.891,14.968,14.968,0,0,0,1.681-.727L31.72,59.323c-.31.032-.619.063-.929.1m5.9-18.313a19.19,19.19,0,0,1-3.944,2.111c-3.894,1.549-9.962,2.522-14.905-3.1,0,0-10.285,1.03-9.937-10.468.2-6.694,7.149-9.785,7.149-9.785S13.843,7.818,26.808,3.21C37.384-.545,42.719,5.372,43.9,7.376c0,0,11.372-2.023,12.763,10.253,1.113,9.836-8.426,12.775-7.642,12.737,0,0,6.4,4.627,2.51,9.071-2.1,2.4-4.583,2.054-6.7.936a17.893,17.893,0,0,1-4.185-3.338l-.158,2.446L39.223,58.735c-.265.013-.531.032-.8.051-2.023.126-4.046.284-6.056.48Z" transform="translate(0 0)" fill="#9a7f59"></path><path id="Path_65" data-name="Path 65" d="M120.225,22.871c-.2,0-.3.038-.424.038-.24,0-.31-.133-.31-.48,0-.9.07-9,.07-10.076,0-.8-.367-1.024-1.245-1.024-.948,0-1.3.348-1.3.992V22.554a2.082,2.082,0,0,0,2.269,2.326c1.119,0,1.65-.4,1.65-1.169,0-.55-.24-.841-.714-.841" transform="translate(-43.049 -4.167)" fill="#9a7f59"></path><path id="Path_66" data-name="Path 66" d="M126.753,22.289c.424,0,4.728.019,5.24.019.714,0,1.062-.221,1.062-1.321,0-2.51-1.631-3.919-4.488-3.919a4.45,4.45,0,0,0-4.747,4.8c0,3.135,1.814,5.114,4.728,5.114,3.1,0,4.229-1.65,4.229-2.566a.891.891,0,0,0-.91-.955c-1.34,0-.917,1.485-3.2,1.485a2.182,2.182,0,0,1-2.345-2.181c0-.291.032-.474.436-.474m1.89-3.319c1.555,0,2.193.917,2.193,1.593,0,.3-.107.424-.455.424h-3.59c-.329,0-.4-.107-.4-.386,0-.638.645-1.631,2.257-1.631" transform="translate(-45.551 -6.279)" fill="#9a7f59"></path><path id="Path_67" data-name="Path 67" d="M142.783,22.289c.417,0,4.722.019,5.234.019.714,0,1.068-.221,1.068-1.321,0-2.51-1.631-3.919-4.488-3.919a4.45,4.45,0,0,0-4.747,4.8c0,3.135,1.814,5.114,4.728,5.114,3.091,0,4.229-1.65,4.229-2.566a.9.9,0,0,0-.917-.955c-1.334,0-.917,1.485-3.2,1.485a2.186,2.186,0,0,1-2.345-2.181c0-.291.038-.474.442-.474m1.884-3.319c1.555,0,2.2.917,2.2,1.593,0,.3-.107.424-.455.424h-3.59c-.335,0-.4-.107-.4-.386,0-.638.638-1.631,2.25-1.631" transform="translate(-51.448 -6.279)" fill="#9a7f59"></path><path id="Path_68" data-name="Path 68" d="M160.631,15.178H159.4c-.183,0-.348-.329-.348-.79,0-.512.253-.8.954-.8.417,0,.6.183.86.183.512,0,.917-.664.917-1.34,0-.733-1.03-1.1-2.364-1.1a2.635,2.635,0,0,0-2.914,2.491,3.839,3.839,0,0,0,.278,1.34c0,.126-.038.183-.626.291-.752.145-.752.31-.752.86,0,.569.2.809.676.809h.424c.221,0,.259.107.259.386s-.019,1.536-.019,3.04.019,2.762.019,3.224c0,.569.107.948,1.245.948,1.043,0,1.353-.329,1.353-.879,0-.746-.019-1.8-.019-2.193,0-1.3-.019-3.938-.019-4.1,0-.3.171-.424.48-.424h.86c.531,0,.79-.2.79-.973s-.367-.967-.828-.967" transform="translate(-57.172 -4.167)" fill="#9a7f59"></path><path id="Path_69" data-name="Path 69" d="M180.693,20.685c0-2.642-1.542-3.647-3.243-3.647-2.383,0-2.655,1.719-3.078,1.719-.474,0-.455-1.719-2.857-1.719-2.143,0-2.383,1.612-2.655,1.612-.114,0-.2-.038-.31-.493-.164-.676-.316-.9-.992-.9-.8,0-1.081.253-1.081.879,0,.607-.057,2.9-.057,7.781,0,.7.442.847,1.195.847,1.207,0,1.372-.329,1.372-.752V21.652c0-1.65.733-2.4,1.757-2.4,1.245,0,1.65.8,1.65,2.453,0,.917-.038,3.793-.038,4.121,0,.714.348.917,1.226.917,1.264,0,1.283-.348,1.283-.936,0-3.243-.019-1.593-.019-4.412,0-1.4.866-2.111,1.707-2.111,1.245,0,1.681.771,1.681,2.421,0,.917-.032,3.812-.032,4.14,0,.6.183.9,1.264.9,1.024,0,1.277-.259,1.277-1.043,0-1.233-.051-2.111-.051-5.019" transform="translate(-61.223 -6.268)" fill="#9a7f59"></path><path id="Path_70" data-name="Path 70" d="M193.917,16.021c0-.676-.278-1.024-1.226-1.024-1.1,0-1.283.234-1.283.917,0,1.005-.057,7.212-.057,7.693,0,.7.31.948,1.34.948s1.245-.2,1.245-.879c0-.917-.019-6.555-.019-7.655m-1.283-5.183a1.488,1.488,0,0,0-1.574,1.612,1.468,1.468,0,0,0,1.593,1.517,1.567,1.567,0,1,0-.019-3.129" transform="translate(-70.287 -3.987)" fill="#9a7f59"></path><path id="Path_71" data-name="Path 71" d="M201.5,22.871c-.2,0-.291.038-.417.038-.24,0-.316-.133-.316-.48,0-.9.076-9,.076-10.076,0-.8-.367-1.024-1.245-1.024-.954,0-1.3.348-1.3.992V22.554a2.087,2.087,0,0,0,2.276,2.326c1.113,0,1.643-.4,1.643-1.169,0-.55-.234-.841-.714-.841" transform="translate(-72.951 -4.167)" fill="#9a7f59"></path><path id="Path_72" data-name="Path 72" d="M208.027,16.021c0-.676-.272-1.024-1.226-1.024-1.1,0-1.283.234-1.283.917,0,1.005-.051,7.212-.051,7.693,0,.7.31.948,1.334.948s1.245-.2,1.245-.879c0-.917-.019-6.555-.019-7.655m-1.283-5.183a1.488,1.488,0,0,0-1.574,1.612,1.471,1.471,0,0,0,1.593,1.517,1.5,1.5,0,0,0,1.631-1.41,1.515,1.515,0,0,0-1.65-1.719" transform="translate(-75.478 -3.987)" fill="#9a7f59"></path><path id="Path_73" data-name="Path 73" d="M214.737,22.289c.424,0,4.728.019,5.24.019.714,0,1.062-.221,1.062-1.321,0-2.51-1.631-3.919-4.488-3.919a4.445,4.445,0,0,0-4.741,4.8c0,3.135,1.814,5.114,4.722,5.114,3.1,0,4.235-1.65,4.235-2.566a.9.9,0,0,0-.917-.955c-1.34,0-.917,1.485-3.2,1.485a2.182,2.182,0,0,1-2.345-2.181c0-.291.038-.474.436-.474m1.89-3.319c1.555,0,2.193.917,2.193,1.593,0,.3-.107.424-.455.424h-3.59c-.329,0-.4-.107-.4-.386,0-.638.645-1.631,2.257-1.631" transform="translate(-77.921 -6.279)" fill="#9a7f59"></path><path id="Path_74" data-name="Path 74" d="M235.693,17.385c-.967,0-1.3.234-1.3.8,0,.588.032,1.378.032,3.647,0,2.016-.638,3.022-1.941,3.022-1.062,0-1.669-.809-1.669-2.421,0-.929.038-3.9.038-4.229,0-.714-.386-.879-1.315-.879-1.049,0-1.3.31-1.3.917,0,3.243.019,1.884.019,4.817,0,2.693,1.043,4.027,3.186,4.027,2.617,0,2.712-1.884,3.022-1.884.164,0,.164.348.259.752.126.569.36.9,1.169.9.771,0,1.1-.367,1.1-.973s.057-6.555.057-7.655c0-.676-.424-.841-1.359-.841" transform="translate(-83.965 -6.375)" fill="#9a7f59"></path><path id="Path_75" data-name="Path 75" d="M122.849,41.462c-2.307,0-2.674,1.321-2.984,1.321-.152,0-.183-.07-.183-.4,0-.31.032-.6.032-1.536v-1.89c0-.638-.145-1.024-1.3-1.024-1.043,0-1.378.329-1.378,1.024,0,6.283.019,9.912.019,11.359,0,.607.24.936,1.049.936.619,0,.986-.145,1.094-.714.152-.752.133-.879.3-.879.348,0,.329,1.719,3.2,1.719,2.434,0,3.938-2.067,3.938-5.019,0-3.224-1.467-4.893-3.793-4.893m-1.1,7.952c-1.283,0-2.162-1.081-2.162-2.876,0-2.1.973-2.781,2.269-2.781,1.321,0,2.149.676,2.149,2.655,0,1.941-.9,3-2.257,3" transform="translate(-43.057 -13.953)" fill="#9a7f59"></path><path id="Path_76" data-name="Path 76" d="M138.943,44.018c-1.884,0-2.212,1.612-2.528,1.612-.126,0-.183-.095-.272-.714-.114-.7-.3-.9-1.062-.9s-1.011.2-1.011.8c0,.626-.07,2.876-.07,7.731,0,.676.348.973,1.315.973,1.049,0,1.3-.316,1.3-.973V49.145c0-1.852.809-2.762,2.345-2.762.936,0,1.062-.607,1.062-1.283,0-.809-.329-1.081-1.081-1.081" transform="translate(-49.296 -16.193)" fill="#9a7f59"></path><path id="Path_77" data-name="Path 77" d="M152.433,43.985c-.967,0-1.3.234-1.3.8,0,.588.038,1.372.038,3.647,0,2.016-.645,3.022-1.947,3.022-1.062,0-1.662-.8-1.662-2.421,0-.929.038-3.9.038-4.229,0-.714-.386-.879-1.321-.879-1.043,0-1.3.31-1.3.917,0,3.243.019,1.884.019,4.817,0,2.693,1.043,4.033,3.186,4.033,2.623,0,2.712-1.89,3.022-1.89.164,0,.164.348.259.752.126.569.367.9,1.169.9.771,0,1.1-.367,1.1-.973s.057-6.555.057-7.655c0-.676-.424-.841-1.359-.841" transform="translate(-53.335 -16.16)" fill="#9a7f59"></path><path id="Path_78" data-name="Path 78" d="M165.761,48c-2.073-.367-2.383-.7-2.383-1.391,0-.664.588-.992,1.631-.992a1.942,1.942,0,0,1,1.884.992,1.1,1.1,0,0,0,.954.582c.752,0,1.195-.329,1.195-.948,0-1.321-1.195-2.547-4.014-2.547-2.073,0-4.083.967-4.083,3.1,0,1.277.55,2.434,3.186,2.87,2.1.354,2.693.5,2.693,1.138,0,.461-.348.917-1.631.917-2.453,0-2.269-1.574-3.445-1.574-.638,0-.917.31-.917.967,0,.917,1.081,2.5,4.1,2.5,3.059,0,4.419-1.34,4.419-2.914,0-1.3-.55-2.162-3.59-2.693" transform="translate(-59.166 -16.076)" fill="#9a7f59"></path><path id="Path_79" data-name="Path 79" d="M180.744,48c-2.067-.367-2.383-.7-2.383-1.391,0-.664.588-.992,1.631-.992a1.957,1.957,0,0,1,1.89.992,1.076,1.076,0,0,0,.948.582c.752,0,1.195-.329,1.195-.948,0-1.321-1.195-2.547-4.014-2.547-2.067,0-4.083.967-4.083,3.1,0,1.277.55,2.434,3.186,2.87,2.1.354,2.693.5,2.693,1.138,0,.461-.348.917-1.631.917-2.453,0-2.269-1.574-3.445-1.574-.638,0-.91.31-.91.967,0,.917,1.081,2.5,4.1,2.5,3.059,0,4.412-1.34,4.412-2.914,0-1.3-.55-2.162-3.59-2.693" transform="translate(-64.681 -16.076)" fill="#9a7f59"></path><path id="Path_80" data-name="Path 80" d="M193.727,48.889c.424,0,4.728.019,5.24.019.714,0,1.062-.221,1.062-1.321,0-2.51-1.631-3.919-4.488-3.919a4.445,4.445,0,0,0-4.741,4.8c0,3.135,1.814,5.114,4.722,5.114,3.1,0,4.235-1.65,4.235-2.566a.9.9,0,0,0-.917-.955c-1.34,0-.917,1.485-3.2,1.485a2.186,2.186,0,0,1-2.345-2.181c0-.291.038-.474.436-.474m1.89-3.319c1.555,0,2.2.917,2.2,1.593,0,.3-.114.424-.461.424h-3.59c-.329,0-.4-.107-.4-.386,0-.638.638-1.631,2.25-1.631" transform="translate(-70.192 -16.065)" fill="#9a7f59"></path><path id="Path_81" data-name="Path 81" d="M210.635,49.471c-.2,0-.291.038-.417.038-.24,0-.316-.133-.316-.48,0-.9.076-9,.076-10.076,0-.8-.367-1.024-1.245-1.024-.954,0-1.3.348-1.3.992v10.24a2.09,2.09,0,0,0,2.276,2.326c1.113,0,1.644-.4,1.644-1.176,0-.55-.234-.841-.714-.841" transform="translate(-76.309 -13.953)" fill="#9a7f59"></path><path id="Path_82" data-name="Path 82" d="M111.987,89.378c-.885,0-1.467.4-1.467,1.372a1.354,1.354,0,0,0,1.517,1.429c.936,0,1.542-.442,1.542-1.429,0-.879-.335-1.372-1.593-1.372" transform="translate(-40.658 -32.88)" fill="#9a7f59"></path><path id="Path_83" data-name="Path 83" d="M123.859,76.048c-2.307,0-2.674,1.315-2.99,1.315-.145,0-.177-.07-.177-.4,0-.31.032-.6.032-1.536V73.538c0-.645-.145-1.03-1.3-1.03-1.049,0-1.378.329-1.378,1.03,0,6.277.019,9.905.019,11.353,0,.607.24.936,1.043.936.626,0,.992-.145,1.1-.714.145-.752.126-.879.3-.879.348,0,.329,1.719,3.2,1.719,2.434,0,3.938-2.067,3.938-5.019,0-3.224-1.467-4.886-3.793-4.886m-1.1,7.946c-1.283,0-2.162-1.081-2.162-2.876,0-2.1.973-2.781,2.269-2.781,1.321,0,2.143.676,2.143,2.655,0,1.941-.9,3-2.25,3" transform="translate(-43.428 -26.674)" fill="#9a7f59"></path><path id="Path_84" data-name="Path 84" d="M139.953,78.6c-1.89,0-2.219,1.612-2.528,1.612-.126,0-.183-.095-.272-.714-.114-.7-.3-.9-1.062-.9s-1.011.2-1.011.8c0,.626-.07,2.876-.07,7.731,0,.676.348.973,1.315.973,1.043,0,1.3-.316,1.3-.973V83.725c0-1.852.8-2.762,2.345-2.762.936,0,1.062-.607,1.062-1.283,0-.809-.329-1.081-1.081-1.081" transform="translate(-49.668 -28.915)" fill="#9a7f59"></path><path id="Path_85" data-name="Path 85" d="M153.443,78.565c-.967,0-1.3.234-1.3.8,0,.588.032,1.378.032,3.647,0,2.016-.638,3.022-1.941,3.022-1.062,0-1.669-.8-1.669-2.415,0-.936.038-3.906.038-4.235,0-.714-.386-.879-1.315-.879-1.043,0-1.3.31-1.3.917,0,3.243.019,1.884.019,4.817,0,2.693,1.043,4.033,3.186,4.033,2.617,0,2.712-1.89,3.022-1.89.164,0,.164.348.259.752.126.569.367.9,1.169.9.771,0,1.1-.367,1.1-.973s.057-6.555.057-7.655c0-.676-.424-.841-1.359-.841" transform="translate(-53.707 -28.882)" fill="#9a7f59"></path><path id="Path_86" data-name="Path 86" d="M166.771,82.583c-2.073-.367-2.383-.7-2.383-1.391,0-.664.588-.992,1.631-.992a1.942,1.942,0,0,1,1.884.992,1.087,1.087,0,0,0,.954.582c.752,0,1.188-.329,1.188-.948,0-1.321-1.188-2.547-4.008-2.547-2.073,0-4.083.973-4.083,3.1,0,1.277.55,2.434,3.186,2.876,2.1.348,2.693.493,2.693,1.131,0,.461-.348.917-1.631.917-2.459,0-2.269-1.574-3.445-1.574-.638,0-.917.31-.917.967,0,.917,1.081,2.5,4.1,2.5,3.059,0,4.419-1.34,4.419-2.914,0-1.3-.55-2.162-3.59-2.693" transform="translate(-59.538 -28.797)" fill="#9a7f59"></path><path id="Path_87" data-name="Path 87" d="M181.751,82.583c-2.073-.367-2.383-.7-2.383-1.391,0-.664.588-.992,1.631-.992a1.942,1.942,0,0,1,1.884.992,1.1,1.1,0,0,0,.954.582c.752,0,1.195-.329,1.195-.948,0-1.321-1.195-2.547-4.014-2.547-2.073,0-4.084.973-4.084,3.1,0,1.277.55,2.434,3.186,2.876,2.1.348,2.693.493,2.693,1.131,0,.461-.348.917-1.631.917-2.453,0-2.269-1.574-3.445-1.574-.638,0-.917.31-.917.967,0,.917,1.081,2.5,4.109,2.5,3.053,0,4.412-1.34,4.412-2.914,0-1.3-.55-2.162-3.59-2.693" transform="translate(-65.049 -28.797)" fill="#9a7f59"></path><path id="Path_88" data-name="Path 88" d="M194.737,83.469c.424,0,4.728.019,5.24.019.714,0,1.062-.221,1.062-1.321,0-2.51-1.631-3.919-4.488-3.919a4.445,4.445,0,0,0-4.741,4.8c0,3.135,1.808,5.114,4.722,5.114,3.1,0,4.235-1.65,4.235-2.566a.9.9,0,0,0-.917-.954c-1.34,0-.917,1.485-3.2,1.485a2.182,2.182,0,0,1-2.345-2.181c0-.291.038-.474.436-.474m1.89-3.319c1.555,0,2.193.917,2.193,1.593,0,.3-.107.424-.455.424h-3.59c-.329,0-.4-.107-.4-.386,0-.638.645-1.631,2.257-1.631" transform="translate(-70.563 -28.786)" fill="#9a7f59"></path><path id="Path_89" data-name="Path 89" d="M211.645,84.051c-.2,0-.291.038-.424.038-.234,0-.31-.133-.31-.48,0-.9.076-8.989.076-10.07,0-.809-.367-1.03-1.245-1.03-.954,0-1.3.348-1.3.992V83.734a2.09,2.09,0,0,0,2.269,2.333c1.119,0,1.65-.4,1.65-1.176,0-.55-.24-.841-.714-.841" transform="translate(-76.681 -26.674)" fill="#9a7f59"></path><path id="Path_90" data-name="Path 90" d="M220.181,82.583c-2.073-.367-2.383-.7-2.383-1.391,0-.664.588-.992,1.631-.992a1.948,1.948,0,0,1,1.884.992,1.087,1.087,0,0,0,.954.582c.752,0,1.188-.329,1.188-.948,0-1.321-1.188-2.547-4.008-2.547-2.073,0-4.09.973-4.09,3.1,0,1.277.55,2.434,3.192,2.876,2.1.348,2.693.493,2.693,1.131,0,.461-.354.917-1.631.917-2.459,0-2.276-1.574-3.445-1.574-.638,0-.917.31-.917.967,0,.917,1.081,2.5,4.1,2.5,3.059,0,4.419-1.34,4.419-2.914,0-1.3-.55-2.162-3.59-2.693" transform="translate(-79.186 -28.797)" fill="#9a7f59"></path><path id="Path_91" data-name="Path 91" d="M237.6,83.7a3.074,3.074,0,0,0-3.107,3.14,3.247,3.247,0,0,0,3.3,3.092c1.689,0,2.5-.528,3.924-.241a3.87,3.87,0,0,1,2.012,1.052.36.36,0,0,0,.448.072c.125-.083.208-.236.125-.6a8.76,8.76,0,0,0-1.181-2.639c-1.045-1.609-3.16-3.872-5.518-3.872" transform="translate(-86.264 -30.792)" fill="#9a7f59"></path><path id="Path_92" data-name="Path 92" d="M258.32,83.7a3.075,3.075,0,0,1,3.11,3.14,3.247,3.247,0,0,1-3.3,3.092c-1.692,0-2.5-.528-3.926-.241a3.871,3.871,0,0,0-2.01,1.052.361.361,0,0,1-.449.072c-.124-.083-.207-.236-.124-.6a8.717,8.717,0,0,1,1.183-2.639c1.044-1.609,3.159-3.872,5.514-3.872" transform="translate(-92.555 -30.792)" fill="#9a7f59"></path><path id="Path_93" data-name="Path 93" d="M249.9,75.3a2.466,2.466,0,0,0-2,.9,2.462,2.462,0,0,0-1.991-.9,3.035,3.035,0,0,0-3.028,3.078,3.165,3.165,0,0,0,.613,1.827,7.832,7.832,0,0,0,1.454,1.5,9.307,9.307,0,0,1,2.585,3.35.379.379,0,0,0,.733,0,9.386,9.386,0,0,1,2.592-3.35,8.243,8.243,0,0,0,1.454-1.5,3.211,3.211,0,0,0,.607-1.827A3.033,3.033,0,0,0,249.9,75.3m1.669,4.349c-1.094,1.5-2.579,1.979-3.666,4.324-1.081-2.345-2.566-2.826-3.666-4.324a2.083,2.083,0,0,1-.43-1.252,2.191,2.191,0,0,1,2.174-2.193,2.123,2.123,0,0,1,1.922,1.346,2.13,2.13,0,0,1,1.922-1.346A2.192,2.192,0,0,1,252,78.4a2.09,2.09,0,0,1-.436,1.252" transform="translate(-89.351 -27.701)" fill="#9a7f59"></path></g></svg> 