<?xml version="1.0" encoding="UTF-8"?> <svg xmlns="http://www.w3.org/2000/svg" id="Laag_2" viewBox="0 0 198 153.99"><defs><style>.cls-1{fill:#03c6f9;stroke-width:0px;}</style></defs><g id="Laag_1-2"><path class="cls-1" d="m153,0c.33,0,.67,0,1,0,8.83,12.43,18.18,24.52,26.34,37.37,9.39,14.8,15.91,30.92,17.66,48.63v7c-1.13,15.08-8.06,26.92-20.62,35.14-22.63,14.8-47.04,18.16-73.01,10.54-14.17-4.16-28.25-8.84-42.64-12.06-20.35-4.56-35.54,4.99-40.42,24.16-.27,1.08-.56,2.15-.85,3.22-.78-.99-1.72-1.9-2.32-2.99C8.24,132.88,2.04,113.59,0,93,0,88.67,0,84.33,0,80c.36-1.94.7-3.88,1.07-5.81,3.18-16.76,11.06-30.4,25.76-39.79,11.34-7.25,23.57-12.45,36.59-15.34C93.22,12.42,123.13,6.32,153,0Zm-24.74,77.06h-.03c0,9.49-.03,18.98.03,28.47,0,1.27.37,3.63.65,3.65,4.37.18,10.21,1.73,12.72-.47,2.53-2.21,3.12-1.18,4.7-.32,10.08,5.48,22.58,1.6,27.55-8.87,4.23-8.93,4.19-18.09,0-27.02-4.26-9.07-14.4-13.41-23.87-10.49-2.49.77-4.91,1.75-7.37,2.64-.06-2.99-.12-5.98-.18-8.97,0-.17,0-.33,0-.5,0-10.66,0-10.55-10.55-10.3-2.83.07-3.73.92-3.69,3.72.13,9.49.05,18.98.05,28.47Zm-55.4,11.12c.2,7.59,4.05,15.64,13.55,20.01,10.38,4.78,20.4,3.24,29.89-2.69.75-.47,1.8-1.85,1.62-2.18-1.56-2.72-3.18-5.49-5.29-7.77-.45-.49-3.07.79-4.55,1.54-6.93,3.54-15.23,2.46-18.6-2.61-.59-.89-.71-2.09-1.05-3.14.95-.14,1.9-.4,2.85-.4,7.65-.03,15.3.04,22.96-.04,7.62-.08,7.84,1.69,6.95-7.4-1.35-13.84-11.69-23.11-25.04-22.42-13.2.68-23.16,11.21-23.28,27.09Zm-43.69-26.06c-.67,0-1.33,0-2,0-6.07.01-6.09.02-3.89,5.45,4.49,11.08,9,22.16,13.5,33.24,3.68,9.07,3.68,8.91,13.2,9.12,3.5.08,5.27-.96,6.55-4.31,4.21-11.01,8.78-21.89,13.2-32.82,4.5-11.13,4.5-11.04-7.61-10.76-2.61.06-3.81.95-4.67,3.34-2.63,7.35-5.47,14.62-8.28,21.9-.45,1.17-1.16,2.25-1.75,3.37-.57-1.19-1.21-2.35-1.68-3.57-2.32-6.05-4.48-12.16-6.91-18.16-3.28-8.08-.88-6.63-9.66-6.81Z"></path><path class="cls-1" d="m162.21,85.45c.08,8.19-4.34,13.01-11.18,12.55-6-.4-8.55-3.1-8.57-9.06,0-1.66,0-3.33,0-4.99,0-6.69,2.23-9.4,8.22-9.96,5.77-.54,10.3,2.98,11.3,8.85.17.98.18,1.99.23,2.61Z"></path><path class="cls-1" d="m97.14,80.72c-1.82,0-3.65.12-5.46-.04-1.2-.1-2.37-.6-3.55-.91.53-1.18.84-2.54,1.61-3.52,4.07-5.19,13.62-4.49,16.64,1.12,1.13,2.09,1.17,3.46-1.81,3.37-2.48-.08-4.96-.02-7.45-.02Z"></path></g></svg> 