<?xml version="1.0" encoding="UTF-8"?> <svg xmlns="http://www.w3.org/2000/svg" viewBox="0 0 667.03 44.31"><title>logo-deraedt-ivan</title><g id="Laag_2" data-name="Laag 2"><g id="Layer_1" data-name="Layer 1"><rect y="1" width="333.33" height="42.31" style="fill:#9b7f59"></rect><rect x="332.69" y="1" width="333.33" height="42.31" style="fill:#fff;stroke:#231f20;stroke-miterlimit:10;stroke-width:2px"></rect><path d="M52.48,13.75a6.47,6.47,0,0,1,1.17,3.89,5.65,5.65,0,0,1-1.18,3.75,6,6,0,0,1-1.94,1.45,5.73,5.73,0,0,1,2.94,2.25,6.69,6.69,0,0,1,1,3.74,7.42,7.42,0,0,1-1.14,4.06,7,7,0,0,1-1.8,2,7.11,7.11,0,0,1-2.89,1.28,17.59,17.59,0,0,1-3.6.35H33.55V11H45.87C49,11.08,51.19,12,52.48,13.75ZM38.64,15.46v5.62h6.2a5.13,5.13,0,0,0,2.69-.63,2.41,2.41,0,0,0,1-2.24,2.28,2.28,0,0,0-1.37-2.35,9.45,9.45,0,0,0-3-.4Zm0,9.84v6.8h6.19a6,6,0,0,0,2.58-.45,3.22,3.22,0,0,0,1.68-3.18,2.76,2.76,0,0,0-1.63-2.74,6.52,6.52,0,0,0-2.55-.43Z" style="fill:#231f20"></path><path d="M78.68,34.26c-1.92,2-4.71,3-8.35,3s-6.43-1-8.36-3Q58.1,30.62,58.1,23.74T62,13.23c1.93-2,4.71-3,8.36-3s6.43,1,8.35,3q3.85,3.51,3.86,10.51T78.68,34.26Zm-3.33-3.87a10.47,10.47,0,0,0,1.86-6.65,10.42,10.42,0,0,0-1.86-6.63,6.07,6.07,0,0,0-5-2.34,6.13,6.13,0,0,0-5,2.33,10.32,10.32,0,0,0-1.89,6.64,10.35,10.35,0,0,0,1.89,6.65,6.16,6.16,0,0,0,5,2.33A6.09,6.09,0,0,0,75.35,30.39Z" style="fill:#231f20"></path><path d="M86.6,11H92V26.69a8.87,8.87,0,0,0,.62,3.83q1,2.14,4.2,2.15T101,30.52a8.72,8.72,0,0,0,.62-3.83V11h5.42V26.7A13.15,13.15,0,0,1,105.81,33q-2.36,4.15-9,4.15t-9-4.15A13.15,13.15,0,0,1,86.6,26.7Z" style="fill:#231f20"></path><path d="M115.65,11,119,25.63l.73,4.06.74-4L123.37,11H129l3,14.6.78,4.06.78-3.9L137,11h5.43l-7.18,25.5h-5.1l-3.08-14.91-.9-4.93-.9,4.93-3.07,14.91h-5L110,11Z" style="fill:#231f20"></path><path d="M149.09,11l3.37,14.6.73,4.06.74-4L156.8,11h5.63l3,14.6.77,4.06.79-3.9L170.42,11h5.42l-7.17,25.5h-5.1l-3.08-14.91-.9-4.93-.9,4.93-3.08,14.91h-5L143.43,11Z" style="fill:#231f20"></path><path d="M197.91,15.54H184.42V21H196.8v4.43H184.42v6.55h14.11v4.59H179.21V11h18.7Z" style="fill:#231f20"></path><path d="M219,11.69a6.28,6.28,0,0,1,2.39,1.78,7.75,7.75,0,0,1,1.28,2.14,7.07,7.07,0,0,1,.48,2.68,7.66,7.66,0,0,1-.92,3.58,5.14,5.14,0,0,1-3,2.48,4.73,4.73,0,0,1,2.5,2,8.39,8.39,0,0,1,.74,4v1.71a12.29,12.29,0,0,0,.14,2.37,2.17,2.17,0,0,0,1,1.46v.64H217.7c-.16-.57-.28-1-.35-1.37a13.34,13.34,0,0,1-.22-2.2l0-2.37c0-1.62-.3-2.71-.84-3.25a4.3,4.3,0,0,0-3-.81H208v10h-5.2V11H215A10.83,10.83,0,0,1,219,11.69Zm-11,3.77v6.85h5.74a6,6,0,0,0,2.56-.42A2.86,2.86,0,0,0,217.82,19a3.22,3.22,0,0,0-1.46-3.11,5.3,5.3,0,0,0-2.47-.45Z" style="fill:#231f20"></path><path d="M228.35,11h5.25v10.5L243.45,11h6.88L239.87,21.52l11,15H244L236.16,25.4,233.6,28v8.53h-5.25Z" style="fill:#231f20"></path><path d="M272.71,15.54h-13.5V21H271.6v4.43H259.21v6.55h14.12v4.59H254V11h18.7Z" style="fill:#231f20"></path><path d="M277.39,11H283L293.1,28.81V11h5v25.5h-5.32L282.36,18.44V36.53h-5Z" style="fill:#231f20"></path><path d="M361.32,11.61a8.47,8.47,0,0,1,4.34,3.24A11.27,11.27,0,0,1,367.48,19a19.87,19.87,0,0,1,.48,4.22,16.93,16.93,0,0,1-2,8.61,9.23,9.23,0,0,1-8.55,4.76h-11V11.06h11A13.56,13.56,0,0,1,361.32,11.61Zm-9.77,3.88V32.13h4.92a5.32,5.32,0,0,0,5.27-3.72,13.15,13.15,0,0,0,.81-4.86,12,12,0,0,0-1.22-6q-1.23-2.09-4.86-2.08Z" style="fill:#231f20"></path><path d="M390.81,15.58H377.32V21h12.39v4.43H377.32V32h14.12v4.59H372.12V11.06h18.69Z" style="fill:#231f20"></path><path d="M421.77,11.72a6.36,6.36,0,0,1,2.39,1.78,8.06,8.06,0,0,1,1.28,2.15,7.2,7.2,0,0,1,.47,2.68A7.65,7.65,0,0,1,425,21.9a5.11,5.11,0,0,1-3,2.48,4.71,4.71,0,0,1,2.49,2,8.25,8.25,0,0,1,.74,4v1.71a13.19,13.19,0,0,0,.14,2.37,2.14,2.14,0,0,0,1,1.46v.64h-5.88c-.16-.57-.27-1-.34-1.37a12.25,12.25,0,0,1-.23-2.2l0-2.37c0-1.62-.3-2.71-.84-3.25a4.33,4.33,0,0,0-3-.81h-5.2v10h-5.21V11.06h12.2A11.3,11.3,0,0,1,421.77,11.72Zm-11,3.77v6.85h5.73a6,6,0,0,0,2.56-.42,2.86,2.86,0,0,0,1.51-2.87,3.21,3.21,0,0,0-1.46-3.11,5.28,5.28,0,0,0-2.46-.45Z" style="fill:#231f20"></path><path d="M438.3,11.06h6l9,25.5h-5.78l-1.68-5.24H436.5l-1.73,5.24H429.2ZM438,26.92h6.53l-3.22-10Z" style="fill:#231f20"></path><path d="M475.45,15.58H462V21h12.38v4.43H462V32h14.11v4.59H456.75V11.06h18.7Z" style="fill:#231f20"></path><path d="M495.16,11.61a8.45,8.45,0,0,1,4.35,3.24A11.25,11.25,0,0,1,501.32,19a19.28,19.28,0,0,1,.49,4.22,16.93,16.93,0,0,1-2,8.61,9.23,9.23,0,0,1-8.56,4.76h-11V11.06h11A13.5,13.5,0,0,1,495.16,11.61Zm-9.77,3.88V32.13h4.92a5.31,5.31,0,0,0,5.27-3.72,13.14,13.14,0,0,0,.82-4.86,11.91,11.91,0,0,0-1.23-6q-1.21-2.09-4.86-2.08Z" style="fill:#231f20"></path><path d="M524.33,11.06v4.52H516.7v21h-5.36v-21h-7.66V11.06Z" style="fill:#231f20"></path><path d="M542.15,36.56h-5.3V11.06h5.3Z" style="fill:#231f20"></path><path d="M562.05,11.06h5.53l-8.69,25.5h-5l-8.63-25.5h5.69l5.54,19.36Z" style="fill:#231f20"></path><path d="M575.43,11.06h6l9,25.5h-5.77L583,31.32h-9.39l-1.72,5.24h-5.58Zm-.35,15.86h6.53l-3.22-10Z" style="fill:#231f20"></path><path d="M593.64,11.06h5.59l10.12,17.78V11.06h5v25.5H609L598.6,18.47V36.56h-5Z" style="fill:#231f20"></path><path d="M628,21.44h3.31l6,10.54V21.44h2.94V36.56H637.1l-6.16-10.73V36.56H628Z" style="fill:#231f20"></path><path d="M652.06,21.44h3.28l-5.15,15.12h-3l-5.12-15.12h3.38l3.28,11.48Z" style="fill:#231f20"></path></g></g></svg> 