<?xml version="1.0" encoding="UTF-8"?> <svg xmlns="http://www.w3.org/2000/svg" xmlns:xlink="http://www.w3.org/1999/xlink" id="Group_110" data-name="Group 110" width="265.986" height="63.248" viewBox="0 0 265.986 63.248"><defs><clipPath id="clip-path"><rect id="Rectangle_5" data-name="Rectangle 5" width="265.986" height="63.248" fill="none"></rect></clipPath></defs><g id="Group_3" data-name="Group 3" clip-path="url(#clip-path)"><path id="Path_3" data-name="Path 3" d="M101.43,35.175c.017.2.213.254.314.386.031.041.1.072.04.139s-.062.1-.129.1a17.225,17.225,0,0,0-2.239.271,5.37,5.37,0,0,0-1.4.24c-.093.038-.172-.072-.239-.137a1.029,1.029,0,0,0-1.134-.252c-1.889.5-3.789.959-5.69,1.421-.208.05-.254.122-.216.324q.806,4.349,1.6,8.7l1.524,8.278c.441,2.4.875,4.794,1.318,7.19.026.149,0,.182-.144.18H92.627c-.2,0-.2-.132-.24-.252q-.607-2.2-1.2-4.41Q88.648,48.09,86.11,38.827c-.062-.239-.134-.239-.345-.194q-3.441.867-6.886,1.708a.376.376,0,0,0-.328.321q-.8,3.293-1.608,6.586-1.508,6.183-3.015,12.367c-.278,1.138-.563,2.277-.834,3.418-.038.158-.084.239-.261.206-.832-.11-1.678-.208-2.5-.309-.136-.017-.175-.055-.146-.218Q71,58.439,71.8,54.161q.762-4.074,1.517-8.134.41-2.182.822-4.36a.514.514,0,0,1,.019-.149L72,42.046,58.393,45.418l-12.376,3.07L26.879,53.232,15.384,56.083.5,59.777c-.17.043-.285.043-.316-.173a1.292,1.292,0,0,0-.122-.4c-.142-.271-.019-.333.239-.393q5.807-1.421,11.615-2.854L31.088,51.24q7.837-1.917,15.669-3.854l19.152-4.724q4.056-1,8.115-1.979a.431.431,0,0,0,.371-.41q.719-3.911,1.467-7.823.676-3.6,1.349-7.2c.271-1.455.539-2.91.82-4.362a.275.275,0,0,0-.1-.295q-3.775-3.636-7.545-7.276L65.679,8.758Q62,5.209,58.314,1.648c-.479-.46-.891-.975-1.337-1.465h1.072Q60.959.118,63.874.049C64.418.037,64.964.025,65.509,0a.48.48,0,0,1,.4.168q3.116,3.085,6.231,6.157,3.406,3.355,6.8,6.727,2.329,2.3,4.659,4.606a.534.534,0,0,0,.427.17h2.845c.192,0,.261.055.292.24.208,1.2.429,2.4.645,3.578A.619.619,0,0,0,88,22q4.479,4.414,8.956,8.836l3.835,3.8c.156.153.264.307.578.239a10.132,10.132,0,0,1,1.546-.055l6.54-.172q2.053-.054,4.1-.115c.479-.012.973-.024,1.46-.048.177,0,.239.026.239.24,0,.642,0,.635-.637.647l-6.4.127-5.6.115a.45.45,0,0,0-.113,0,.878.878,0,0,1-.985-.345.4.4,0,0,0-.115-.077l-.053-.062-.058-.055-.058-.038v.046l.062-.015c0,.024-.046.036,0,.072s.046,0,.069-.014-.048.029-.016.067S101.409,35.18,101.43,35.175Zm-9.448-7.449c.053.053.091.129.194.144a.291.291,0,0,0-.151-.189c-.036-.043-.069-.091-.11-.132q-1.56-1.585-3.116-3.173c-.177-.18-.338-.379-.546-.616a1.032,1.032,0,0,0,.41.928c.58.516,1.139,1.052,1.711,1.575.53.491,1.071.978,1.608,1.465m-2.6,2.085c-.022-.019-.046-.026-.062,0s.019.022.028.031a1.139,1.139,0,0,0,.029.311c.376,2.047.758,4.091,1.124,6.138.048.266.122.319.386.24,1.369-.352,2.739-.681,4.11-1.019l1.457-.364ZM78.918,39.47c2.212-.542,4.424-1.088,6.636-1.62.206-.05.257-.1.194-.319q-.959-3.425-1.884-6.862-.743-2.711-1.491-5.422c-.079.043-.077.115-.093.177Q80.905,31.067,79.525,36.7c-.221.908-.429,1.817-.645,2.725l-.028.036Zm3.027-15.7a.719.719,0,0,0-.211-.5q-1.388-1.215-2.771-2.461c-.112-.1-.163-.11-.192.065-.1.556-.2,1.11-.309,1.663l-1.7,9.014-1.711,9.108q-.758,3.993-1.5,8-.913,4.856-1.821,9.719-.35,1.857-.7,3.717c-.031.163,0,.221.177.24a7.235,7.235,0,0,1,1.023.132c.24.055.288-.062.333-.24q1.165-4.793,2.337-9.587l3.092-12.667q1.79-7.324,3.6-14.641c.117-.532.239-1.052.359-1.558m8.65,16.925a.482.482,0,0,0,0-.29c-.127-.666-.254-1.332-.376-2q-.846-4.554-1.678-9.108-.934-5.033-1.874-10.066c-.036-.2-.1-.271-.307-.271q-1.625.019-3.248,0c-.239,0-.239.075-.172.259q.662,1.819,1.308,3.643l5.8,16.3C90.216,39.664,90.4,40.165,90.595,40.694ZM82.273,17.808a3.239,3.239,0,0,0-.24-.254L79.718,15.2,74.3,9.727Q73.1,8.5,71.886,7.275L65.909,1.219a.4.4,0,0,0-.354-.132c-.362.036-.719.038-1.088.086a8.665,8.665,0,0,0-1.15.129l.959.875L74.1,11.249q3.216,2.962,6.428,5.925a2.291,2.291,0,0,0,1.678.649ZM92.5,28.186v.041s.06.1.1.046-.028-.087-.1-.087m-.161-.137.041-.019s-.012-.019-.019-.022h-.043Z" transform="translate(0 0)" fill="#231f20"></path><path id="Path_4" data-name="Path 4" d="M175.818,51.175c-.12.506-.24,1.026-.369,1.546q-1.79,7.32-3.6,14.642-1.548,6.329-3.092,12.666-1.172,4.793-2.337,9.587c-.045.184-.084.3-.333.239a7.306,7.306,0,0,0-1.024-.132c-.17-.012-.208-.069-.177-.239q.357-1.855.7-3.717.909-4.86,1.822-9.718.747-4,1.5-8l1.711-9.108,1.706-9c.106-.554.213-1.107.309-1.663.029-.175.079-.163.192-.065q1.383,1.234,2.77,2.462A.718.718,0,0,1,175.818,51.175Z" transform="translate(-93.873 -27.406)" fill="#9a7f59"></path><path id="Path_5" data-name="Path 5" d="M200.173,65.781c-.192-.53-.374-1.031-.551-1.531l-5.807-16.286q-.652-1.824-1.309-3.643c-.067-.184-.069-.261.173-.259q1.62.019,3.248,0c.208,0,.271.072.307.271q.93,5.033,1.874,10.066.848,4.554,1.677,9.108c.122.666.24,1.332.376,2A.481.481,0,0,1,200.173,65.781Z" transform="translate(-109.578 -25.086)" fill="#9a7f59"></path><path id="Path_6" data-name="Path 6" d="M165.988,19.24l-.077.014a2.306,2.306,0,0,1-1.678-.649q-3.207-2.96-6.409-5.925L148,3.609l-.959-.874a8.539,8.539,0,0,1,1.151-.129c.362-.048.719-.051,1.088-.087a.4.4,0,0,1,.355.132L155.6,8.707q1.213,1.229,2.426,2.451l5.416,5.472,2.315,2.356c.072.072.137.151.23.254" transform="translate(-83.715 -1.432)" fill="#9a7f59"></path><path id="Path_7" data-name="Path 7" d="M208.64,59.136c-.537-.479-1.079-.973-1.613-1.464-.573-.522-1.131-1.059-1.711-1.575a1.031,1.031,0,0,1-.41-.927c.208.239.369.436.546.616q1.558,1.589,3.116,3.173c.041.041.075.089.11.132Z" transform="translate(-116.658 -31.41)" fill="#9a7f59"></path><path id="Path_8" data-name="Path 8" d="M213.642,64.274a.291.291,0,0,1,.151.189c-.1-.015-.142-.091-.194-.144Z" transform="translate(-121.61 -36.594)" fill="#9a7f59"></path><path id="Path_9" data-name="Path 9" d="M214.769,65.448c.067,0,.127.055.105.086s-.065-.024-.1-.045.007-.027-.009-.041" transform="translate(-122.274 -37.262)" fill="#9a7f59"></path><path id="Path_10" data-name="Path 10" d="M214.373,65.062l-.022-.038a.24.24,0,0,1,.043,0,.215.215,0,0,1,.019.022Z" transform="translate(-122.038 -37.02)" fill="#9a7f59"></path><path id="Path_11" data-name="Path 11" d="M183.158,91.6h-.067l.029-.036Z" transform="translate(-104.241 -52.132)" fill="#fff"></path><rect id="Rectangle_2" data-name="Rectangle 2" width="141.018" height="20.119" transform="translate(106.533 18.456)" fill="#9b7f59"></rect><path id="Path_12" data-name="Path 12" d="M274.043,53.448a3.077,3.077,0,0,1,.556,1.85,2.685,2.685,0,0,1-.561,1.783,2.848,2.848,0,0,1-.922.689,2.722,2.722,0,0,1,1.4,1.07,3.178,3.178,0,0,1,.476,1.779,3.528,3.528,0,0,1-.542,1.93,3.327,3.327,0,0,1-.856.951,3.38,3.38,0,0,1-1.374.609,8.369,8.369,0,0,1-1.712.166h-5.463V52.141H270.9A3.773,3.773,0,0,1,274.043,53.448Zm-6.581.813v2.673h2.948a2.441,2.441,0,0,0,1.279-.3,1.146,1.146,0,0,0,.475-1.065,1.084,1.084,0,0,0-.652-1.118,4.479,4.479,0,0,0-1.426-.19h-2.625m0,4.679v3.233h2.944a2.848,2.848,0,0,0,1.227-.214,1.53,1.53,0,0,0,.8-1.512,1.312,1.312,0,0,0-.775-1.3,3.1,3.1,0,0,0-1.212-.2h-2.982" transform="translate(-150.898 -29.686)" fill="#231f20"></path><path id="Path_13" data-name="Path 13" d="M301.935,62.717a6.246,6.246,0,0,1-7.946,0,6.537,6.537,0,0,1-1.84-5,6.493,6.493,0,0,1,1.854-5,6.246,6.246,0,0,1,7.946,0,6.442,6.442,0,0,1,1.836,5,6.384,6.384,0,0,1-1.85,5m-1.584-1.84a4.981,4.981,0,0,0,.885-3.162,4.958,4.958,0,0,0-.885-3.152,3.1,3.1,0,0,0-4.755,0,4.905,4.905,0,0,0-.9,3.157,4.92,4.92,0,0,0,.9,3.162,2.929,2.929,0,0,0,2.377,1.108,2.9,2.9,0,0,0,2.378-1.108" transform="translate(-166.331 -29.202)" fill="#231f20"></path><path id="Path_14" data-name="Path 14" d="M323.6,52.14h2.568V59.6a4.218,4.218,0,0,0,.295,1.821,1.981,1.981,0,0,0,2,1.022,1.942,1.942,0,0,0,1.988-1.022,4.14,4.14,0,0,0,.295-1.821V52.14h2.577v7.466a6.249,6.249,0,0,1-.585,3q-1.121,1.974-4.279,1.973T324.178,62.6a6.254,6.254,0,0,1-.575-3Z" transform="translate(-184.233 -29.685)" fill="#231f20"></path><path id="Path_15" data-name="Path 15" d="M352.14,52.14l1.593,6.957.347,1.93.352-1.9,1.379-6.985h2.677l1.427,6.942.371,1.931.371-1.854,1.636-7.019h2.582L361.46,64.266h-2.425l-1.465-7.09-.428-2.345-.428,2.345-1.46,7.09h-2.378L349.454,52.14Z" transform="translate(-198.957 -29.686)" fill="#231f20"></path><path id="Path_16" data-name="Path 16" d="M389.056,52.14l1.6,6.942.347,1.931.352-1.9,1.365-6.971H395.4l1.427,6.942.366,1.931.376-1.854L399.2,52.14h2.578l-3.41,12.126h-2.425l-1.465-7.09-.428-2.345-.428,2.345-1.465,7.09h-2.378L386.365,52.14Z" transform="translate(-219.972 -29.686)" fill="#231f20"></path><path id="Path_17" data-name="Path 17" d="M434.763,54.3h-6.415v2.6h5.887V59h-5.887v3.115h6.71V64.3h-9.187V52.14h8.892Z" transform="translate(-242.464 -29.685)" fill="#231f20"></path><path id="Path_18" data-name="Path 18" d="M459.621,52.468a2.986,2.986,0,0,1,1.136.847,3.674,3.674,0,0,1,.609,1.018,3.372,3.372,0,0,1,.228,1.274,3.645,3.645,0,0,1-.438,1.7,2.445,2.445,0,0,1-1.427,1.179,2.252,2.252,0,0,1,1.189.951,3.992,3.992,0,0,1,.352,1.9v.813a5.88,5.88,0,0,0,.066,1.127,1.032,1.032,0,0,0,.476.694v.3H459c-.076-.271-.133-.475-.166-.651a6.327,6.327,0,0,1-.1-1.047V61.455a2.234,2.234,0,0,0-.4-1.546,2.044,2.044,0,0,0-1.426-.385H454.39v4.755h-2.473V52.14h5.8a5.15,5.15,0,0,1,1.9.328M454.39,54.26v3.257h2.73a2.859,2.859,0,0,0,1.217-.2,1.36,1.36,0,0,0,.723-1.374,1.532,1.532,0,0,0-.694-1.479,2.521,2.521,0,0,0-1.175-.214Z" transform="translate(-257.293 -29.685)" fill="#231f20"></path><path id="Path_19" data-name="Path 19" d="M480.128,52.14h2.5v4.993l4.684-4.993h3.271l-4.974,5,5.23,7.133H487.57l-3.728-5.288-1.217,1.236V64.28h-2.5Z" transform="translate(-273.355 -29.686)" fill="#231f20"></path><path id="Path_20" data-name="Path 20" d="M517.346,54.3h-6.419v2.6h5.891V59h-5.891v3.115h6.714V64.3H508.45V52.14h8.892l0,2.159" transform="translate(-289.479 -29.685)" fill="#231f20"></path><path id="Path_21" data-name="Path 21" d="M534.256,52.14h2.667l4.8,8.469V52.14H544.1V64.266h-2.53l-4.955-8.588v8.6h-2.378Z" transform="translate(-304.164 -29.686)" fill="#231f20"></path><rect id="Rectangle_3" data-name="Rectangle 3" width="158.502" height="19.239" transform="translate(107.008 42.667)" fill="#fff"></rect><path id="Path_22" data-name="Path 22" d="M406.823,118.089H247.37V97.97H406.823Zm-158.5-.951H405.872V98.921H248.321Z" transform="translate(-140.837 -55.778)" fill="#231f20"></path><path id="Path_23" data-name="Path 23" d="M269.035,107.488a4.025,4.025,0,0,1,2.064,1.54,5.358,5.358,0,0,1,.866,1.974,9.472,9.472,0,0,1,.228,2.006,8.055,8.055,0,0,1-.951,4.094,4.389,4.389,0,0,1-4.066,2.263h-5.23v-12.14h5.23a6.452,6.452,0,0,1,1.859.261m-4.646,1.845v7.913h2.339a2.53,2.53,0,0,0,2.506-1.769,6.243,6.243,0,0,0,.385-2.311,5.7,5.7,0,0,0-.581-2.853,2.447,2.447,0,0,0-2.311-.989l-2.339.009" transform="translate(-149.135 -61.048)" fill="#231f20"></path><path id="Path_24" data-name="Path 24" d="M299.219,109.376H292.8v2.577H298.7v2.107H292.8v3.124h6.714v2.183h-9.187v-12.14h8.887Z" transform="translate(-165.297 -61.048)" fill="#231f20"></path><path id="Path_25" data-name="Path 25" d="M335.032,107.54a3.029,3.029,0,0,1,1.136.847,3.837,3.837,0,0,1,.609,1.022,3.423,3.423,0,0,1,.223,1.274,3.64,3.64,0,0,1-.433,1.7,2.432,2.432,0,0,1-1.427,1.179,2.24,2.24,0,0,1,1.184.951,3.926,3.926,0,0,1,.352,1.9v.813a6.242,6.242,0,0,0,.066,1.127,1.021,1.021,0,0,0,.476.695v.3h-2.8c-.076-.271-.128-.475-.162-.651a5.812,5.812,0,0,1-.109-1.047v-1.127a2.234,2.234,0,0,0-.4-1.546,2.057,2.057,0,0,0-1.426-.385h-2.473v4.755h-2.477V107.227h5.8A5.378,5.378,0,0,1,335.032,107.54Zm-5.231,1.793v3.257h2.725a2.859,2.859,0,0,0,1.217-.2,1.361,1.361,0,0,0,.718-1.365,1.525,1.525,0,0,0-.695-1.479,2.51,2.51,0,0,0-1.17-.214Z" transform="translate(-186.387 -61.048)" fill="#231f20"></path><path id="Path_26" data-name="Path 26" d="M357.683,107.226h2.853l4.28,12.126h-2.748l-.8-2.492h-4.441L356,119.352h-2.649Zm-.143,7.542h3.105l-1.531-4.755Z" transform="translate(-201.179 -61.048)" fill="#231f20"></path><path id="Path_27" data-name="Path 27" d="M392.667,109.376h-6.4v2.577h5.887v2.107h-5.887v3.124h6.71v2.183h-9.206v-12.14h8.892Z" transform="translate(-218.498 -61.048)" fill="#231f20"></path><path id="Path_28" data-name="Path 28" d="M416.813,107.488a4.018,4.018,0,0,1,2.068,1.54,5.348,5.348,0,0,1,.861,1.974,9.168,9.168,0,0,1,.233,2.006,8.055,8.055,0,0,1-.951,4.094,4.389,4.389,0,0,1-4.071,2.263h-5.23v-12.14h5.23A6.42,6.42,0,0,1,416.813,107.488Zm-4.646,1.845v7.913h2.339a2.525,2.525,0,0,0,2.506-1.769,6.254,6.254,0,0,0,.39-2.311,5.662,5.662,0,0,0-.585-2.853,2.434,2.434,0,0,0-2.311-.989Z" transform="translate(-233.271 -61.048)" fill="#231f20"></path><path id="Path_29" data-name="Path 29" d="M445.412,107.227v2.149h-3.628v9.986h-2.549v-9.986h-3.642v-2.149Z" transform="translate(-247.999 -61.048)" fill="#231f20"></path><rect id="Rectangle_4" data-name="Rectangle 4" width="2.52" height="12.126" transform="translate(203.366 46.178)" fill="#231f20"></rect><path id="Path_30" data-name="Path 30" d="M489.486,107.227h2.63l-4.132,12.126h-2.378l-4.1-12.126h2.705l2.634,9.206Z" transform="translate(-274.137 -61.048)" fill="#231f20"></path><path id="Path_31" data-name="Path 31" d="M509.081,107.226h2.853l4.28,12.126h-2.744l-.789-2.492h-4.465l-.818,2.492h-2.653Zm-.166,7.542h3.105l-1.531-4.755Z" transform="translate(-287.37 -61.048)" fill="#231f20"></path><path id="Path_32" data-name="Path 32" d="M534.9,107.227h2.658l4.812,8.455v-8.455h2.378v12.126H542.2l-4.945-8.6v8.6h-2.378Z" transform="translate(-304.525 -61.048)" fill="#231f20"></path><path id="Path_33" data-name="Path 33" d="M572.859,118.688h1.574l2.853,5.012v-5.012h1.4v7.19h-1.5l-2.929-5.1v5.1h-1.4Z" transform="translate(-326.15 -67.573)" fill="#231f20"></path><path id="Path_34" data-name="Path 34" d="M593.145,118.688h1.56l-2.449,7.19h-1.426l-2.435-7.19H590l1.56,5.459Z" transform="translate(-334.995 -67.573)" fill="#231f20"></path></g></svg> 