<?xml version="1.0" encoding="UTF-8"?> <svg xmlns="http://www.w3.org/2000/svg" id="Laag_2" viewBox="0 0 396.85 280.63"><defs><style>.cls-1{fill:none;}.cls-1,.cls-2{stroke-width:0px;}.cls-2{fill:#009fe3;}</style></defs><g id="Laag_1-2"><path class="cls-2" d="m63.04,166.31c8.51-1.5,12.1-7.37,10.39-17.08-1.66-9.41-6.78-13.12-15.59-11.57-8.07,1.42-12.02,7.81-10.49,16.48,1.61,9.11,7.63,13.59,15.7,12.17Z"></path><path class="cls-2" d="m157.25,140.77c-2.11-11.95-7.51-19-17.66-17.21-8.36,1.47-12.59,8.07-11,23.18l28.82-5.08-.16-.9Z"></path><path class="cls-2" d="m370.49,0H26.36C11.86,0,0,11.86,0,26.36v227.91c0,14.5,11.86,26.36,26.36,26.36h344.13c14.5,0,26.36-11.86,26.36-26.36V26.36c0-14.5-11.86-26.36-26.36-26.36ZM74.61,238.02c-28.97,5.11-38.54-2.9-41.33-18.73l18.96-3.34c1.32,7.47,5.18,10.17,20.27,7.51,14.63-2.58,17.81-7.29,16.81-12.97-.95-5.37-5.56-7.95-13.92-6.48l-11.65,2.06c-16.57,2.92-24.71-3.03-26.18-11.39-1-5.68,1.61-11.83,6.65-16.42-10.8-3.64-16.22-9.92-18.01-20.07-3.08-17.47,8.83-31.12,28.69-34.62,18.3-2.77,26.74-9.03,35.35-16.09l8.1,15.35c-5.43,3.27-12.76,5.33-22.32,7.02,10.46,2.62,16.45,7.73,18.21,17.73,2.71,15.38-7.7,28.76-27.87,32.32-3.43.6-6.47.83-9.44.59-1.58,1.51-2.44,3.66-2.07,5.75.47,2.69,2.27,4.99,10.03,3.62l12.1-2.13c17.92-3.16,31.1,4.37,33.42,17.51,2.82,15.98-9.36,28.13-35.79,32.79Zm79.46-45.41c-25.39,4.47-41.62-9.91-45.99-34.7-4.21-23.89,5.36-44.67,28.51-48.75,22.4-3.95,38.32,8.64,42.77,33.87.47,2.69.75,6.03,1,8.29l-49.43,8.72c4.18,14.97,12.14,18.19,22.29,16.4,6.72-1.18,12.02-4.28,18.05-10.27l10.92,10.39c-6.65,7.64-15.73,13.86-28.12,16.05Zm93.36-18.93l-9.53-54.05c-1.61-9.11-5.34-11.07-10.71-10.12-6.12,1.08-10.19,5.95-13.28,13.74l9.64,54.65-21.21,3.74-13.95-79.14,18.37-3.24,3.4,9.71c5.03-9.05,11.85-14.87,22.01-16.66,13.89-2.45,23.69,5.06,26.32,19.99l10.16,57.64-21.21,3.74Zm68.52-9.62c-16.45,2.75-26.47-5.18-29.58-22.81l-6.95-39.42-11.79,2.08-2.64-14.93,11.8-2.08-3.05-17.33,20.76-6.28,3.5,19.86,18.22-3.21.55,15.3-16.13,2.85,6.87,38.98c1.37,7.77,4.43,10.3,9.81,9.36,2.84-.5,5.52-1.9,8.46-4.42l9.71,12.31c-5.11,5.06-12.51,8.52-19.53,9.75Zm19.72-74.67c-1.21-6.87,3.44-13.69,10.46-14.93,7.17-1.26,13.87,3.56,15.08,10.43,1.24,7.02-3.41,13.84-10.58,15.1-7.02,1.24-13.72-3.59-14.96-10.6Zm23.36,64.51c-7.02,1.24-13.72-3.59-14.96-10.6-1.21-6.87,3.43-13.69,10.45-14.93,7.17-1.26,13.87,3.56,15.08,10.43,1.24,7.02-3.41,13.84-10.58,15.1Z"></path><path class="cls-1" d="m76.98,187.72l-12.1,2.13c-7.77,1.37-9.56-.93-10.03-3.62-.37-2.09.48-4.25,2.07-5.75,2.97.24,6.01.01,9.44-.59,20.16-3.56,30.58-16.94,27.87-32.32-1.76-10-7.75-15.11-18.21-17.73,9.55-1.69,16.89-3.75,22.32-7.02l-8.1-15.35c-8.61,7.06-17.05,13.32-35.35,16.09-19.86,3.5-31.77,17.15-28.69,34.62,1.79,10.15,7.21,16.43,18.01,20.07-5.04,4.59-7.65,10.74-6.65,16.42,1.47,8.36,9.61,14.32,26.18,11.39l11.65-2.06c8.36-1.47,12.97,1.11,13.92,6.48,1,5.68-2.17,10.39-16.81,12.97-15.08,2.66-18.95-.04-20.27-7.51l-18.96,3.34c2.79,15.83,12.36,23.84,41.33,18.73,26.43-4.66,38.61-16.81,35.79-32.79-2.32-13.14-15.5-20.67-33.42-17.51Zm-29.63-33.58c-1.52-8.66,2.43-15.05,10.49-16.48,8.81-1.55,13.93,2.16,15.59,11.57,1.71,9.7-1.88,15.57-10.39,17.08-8.06,1.42-14.09-3.06-15.7-12.17Z"></path><path class="cls-1" d="m153.22,176.43c-10.16,1.79-18.11-1.43-22.29-16.4l49.43-8.72c-.25-2.27-.53-5.6-1-8.29-4.45-25.24-20.37-37.83-42.77-33.87-23.15,4.08-32.72,24.86-28.51,48.75,4.37,24.79,20.61,39.17,45.99,34.7,12.39-2.19,21.46-8.4,28.12-16.05l-10.92-10.39c-6.03,5.99-11.33,9.09-18.05,10.27Zm-13.64-52.87c10.16-1.79,15.56,5.26,17.66,17.21l.16.9-28.82,5.08c-1.59-15.12,2.64-21.71,11-23.18Z"></path><path class="cls-1" d="m232.16,92.3c-10.15,1.79-16.98,7.61-22.01,16.66l-3.4-9.71-18.37,3.24,13.95,79.14,21.21-3.74-9.64-54.65c3.09-7.79,7.16-12.66,13.28-13.74,5.37-.95,9.11,1.01,10.71,10.12l9.53,54.05,21.21-3.74-10.16-57.64c-2.63-14.93-12.43-22.44-26.32-19.99Z"></path><path class="cls-1" d="m317.31,146.42c-5.38.95-8.44-1.59-9.81-9.36l-6.87-38.98,16.13-2.85-.55-15.3-18.22,3.21-3.5-19.86-20.76,6.28,3.05,17.33-11.8,2.08,2.64,14.93,11.79-2.08,6.95,39.42c3.11,17.63,13.13,25.56,29.58,22.81,7.02-1.24,14.42-4.7,19.53-9.75l-9.71-12.31c-2.94,2.52-5.62,3.92-8.46,4.42Z"></path><path class="cls-1" d="m350.64,99.99c7.17-1.26,11.81-8.09,10.58-15.1-1.21-6.87-7.91-11.69-15.08-10.43-7.02,1.24-11.67,8.06-10.46,14.93,1.24,7.02,7.94,11.84,14.96,10.6Z"></path><path class="cls-1" d="m354.53,128.37c-7.02,1.24-11.67,8.06-10.45,14.93,1.24,7.02,7.94,11.84,14.96,10.6,7.17-1.26,11.82-8.09,10.58-15.1-1.21-6.87-7.92-11.69-15.08-10.43Z"></path></g></svg> 