<?xml version="1.0" encoding="UTF-8"?> <svg xmlns="http://www.w3.org/2000/svg" xmlns:xlink="http://www.w3.org/1999/xlink" width="167.633" height="104.703" viewBox="0 0 167.633 104.703"><defs><clipPath id="clip-path"><rect id="Rectangle_45" data-name="Rectangle 45" width="167.633" height="104.703" fill="#9a7f59"></rect></clipPath></defs><g id="Group_42" data-name="Group 42" clip-path="url(#clip-path)"><path id="Path_108" data-name="Path 108" d="M0,175.179H3.215q.906,0,1.8.083a5.945,5.945,0,0,1,1.608.358,2.789,2.789,0,0,1,1.155.806,2.172,2.172,0,0,1,.444,1.439,2.107,2.107,0,0,1-.835,1.735,4.542,4.542,0,0,1-2.31.84l3.571,4.489H6.822L3.411,180.55H1.492v4.379H0Zm1.492,4.3H2.825q.622,0,1.288-.027a5.544,5.544,0,0,0,1.226-.179,2.25,2.25,0,0,0,.924-.475,1.18,1.18,0,0,0,.364-.929,1.261,1.261,0,0,0-.266-.84,1.736,1.736,0,0,0-.7-.489,3.662,3.662,0,0,0-.977-.228c-.362-.036-.725-.055-1.093-.055h-2.1Z" transform="translate(0 -83.531)" fill="#9a7f59"></path><path id="Path_109" data-name="Path 109" d="M27.264,186.619a4.183,4.183,0,0,1-1.634,1.04,6.525,6.525,0,0,1-2.061.3,5.4,5.4,0,0,1-1.759-.268,4.114,4.114,0,0,1-1.324-.722,3.149,3.149,0,0,1-.835-1.075,3.048,3.048,0,0,1-.293-1.322,2.968,2.968,0,0,1,.32-1.37,3.207,3.207,0,0,1,.888-1.074,4.21,4.21,0,0,1,1.35-.7,5.615,5.615,0,0,1,1.706-.248,5.363,5.363,0,0,1,1.6.227,3.642,3.642,0,0,1,1.252.661,2.932,2.932,0,0,1,.808,1.06,3.42,3.42,0,0,1,.285,1.426v.344H20.85a1.863,1.863,0,0,0,.258.792,2.374,2.374,0,0,0,.577.661,2.778,2.778,0,0,0,.836.447,3.189,3.189,0,0,0,1.048.166,4.151,4.151,0,0,0,1.528-.248,3.411,3.411,0,0,0,1.119-.73Zm-1.19-2.63a1.67,1.67,0,0,0-.693-1.322,2.948,2.948,0,0,0-1.812-.5,3.193,3.193,0,0,0-1.865.5,1.965,1.965,0,0,0-.853,1.322Z" transform="translate(-9.231 -86.392)" fill="#9a7f59"></path><path id="Path_110" data-name="Path 110" d="M47.016,187.5a3.2,3.2,0,0,1-1.164,2.679,5.351,5.351,0,0,1-3.367.916,8.219,8.219,0,0,1-2.212-.276,5.569,5.569,0,0,1-1.875-.95l1-.882a4.9,4.9,0,0,0,1.395.833,5.425,5.425,0,0,0,3.234.069,2.451,2.451,0,0,0,.968-.579,2.026,2.026,0,0,0,.5-.832,3.335,3.335,0,0,0,.142-.978v-.826h-.036a2.884,2.884,0,0,1-1.3.909,4.78,4.78,0,0,1-1.634.289,6.174,6.174,0,0,1-1.794-.247,4.479,4.479,0,0,1-1.4-.689,3.124,3.124,0,0,1-.906-1.047,2.783,2.783,0,0,1-.32-1.322,3.1,3.1,0,0,1,.32-1.418,3.019,3.019,0,0,1,.9-1.067,4.23,4.23,0,0,1,1.395-.668,6.551,6.551,0,0,1,1.812-.235,4.851,4.851,0,0,1,.853.076,4.269,4.269,0,0,1,.826.234,3.065,3.065,0,0,1,.719.4,2.319,2.319,0,0,1,.533.558h.036v-1.1h1.386Zm-7.285-2.933a1.87,1.87,0,0,0,.231.916,2.36,2.36,0,0,0,.631.73,3.153,3.153,0,0,0,.933.489,3.549,3.549,0,0,0,1.137.179,3.806,3.806,0,0,0,1.261-.193,2.92,2.92,0,0,0,.933-.517,2.162,2.162,0,0,0,.577-.743,2.08,2.08,0,0,0,.2-.888,2.144,2.144,0,0,0-.213-.957,2.221,2.221,0,0,0-.6-.75,2.81,2.81,0,0,0-.942-.489,4.024,4.024,0,0,0-1.208-.172,3.671,3.671,0,0,0-1.2.186,2.841,2.841,0,0,0-.924.51,2.337,2.337,0,0,0-.595.758,2.108,2.108,0,0,0-.213.943" transform="translate(-18.234 -86.392)" fill="#9a7f59"></path><path id="Path_111" data-name="Path 111" d="M59.533,175.964a.69.69,0,0,1,.293-.551,1.224,1.224,0,0,1,1.439,0,.691.691,0,0,1,.293.551.683.683,0,0,1-.284.564,1.312,1.312,0,0,1-1.457,0,.682.682,0,0,1-.284-.564m.32,2.52h1.386v6.444H59.853Z" transform="translate(-28.387 -83.531)" fill="#9a7f59"></path><path id="Path_112" data-name="Path 112" d="M75.046,186.619a4.183,4.183,0,0,1-1.634,1.04,6.525,6.525,0,0,1-2.061.3,5.4,5.4,0,0,1-1.759-.268,4.114,4.114,0,0,1-1.324-.722,3.149,3.149,0,0,1-.835-1.075,3.048,3.048,0,0,1-.293-1.322,2.968,2.968,0,0,1,.32-1.37,3.208,3.208,0,0,1,.888-1.074,4.21,4.21,0,0,1,1.35-.7,5.615,5.615,0,0,1,1.706-.248,5.363,5.363,0,0,1,1.6.227,3.642,3.642,0,0,1,1.252.661,2.932,2.932,0,0,1,.808,1.06,3.42,3.42,0,0,1,.285,1.426v.344H68.632a1.863,1.863,0,0,0,.258.792,2.374,2.374,0,0,0,.577.661,2.779,2.779,0,0,0,.836.447,3.189,3.189,0,0,0,1.048.166,4.151,4.151,0,0,0,1.528-.248,3.411,3.411,0,0,0,1.119-.73Zm-1.19-2.63a1.67,1.67,0,0,0-.693-1.322,2.948,2.948,0,0,0-1.812-.5,3.193,3.193,0,0,0-1.865.5,1.965,1.965,0,0,0-.853,1.322Z" transform="translate(-32.014 -86.392)" fill="#9a7f59"></path><path id="Path_113" data-name="Path 113" d="M102.854,183.183h-.036a2.942,2.942,0,0,1-1.235.929,4.76,4.76,0,0,1-1.963.379,5.142,5.142,0,0,1-1.634-.255,4.158,4.158,0,0,1-1.324-.709,3.352,3.352,0,0,1-.879-1.075,3.008,3.008,0,0,1,0-2.7,3.3,3.3,0,0,1,.888-1.074,4.2,4.2,0,0,1,1.377-.709,5.926,5.926,0,0,1,1.786-.255,4.616,4.616,0,0,1,1.661.289,4.1,4.1,0,0,1,1.324.813h.036v-4.9h1.386v10.411h-1.386Zm0-2.08a2.147,2.147,0,0,0-.8-1.7,2.951,2.951,0,0,0-.933-.51,4.079,4.079,0,0,0-2.434,0,2.948,2.948,0,0,0-.933.51,2.194,2.194,0,0,0,0,3.4,2.96,2.96,0,0,0,.933.51,4.08,4.08,0,0,0,2.434,0,2.963,2.963,0,0,0,.933-.51,2.147,2.147,0,0,0,.8-1.7" transform="translate(-45.52 -82.928)" fill="#9a7f59"></path><path id="Path_114" data-name="Path 114" d="M124.119,186.619a4.183,4.183,0,0,1-1.634,1.04,6.525,6.525,0,0,1-2.061.3,5.4,5.4,0,0,1-1.759-.268,4.114,4.114,0,0,1-1.324-.722,3.149,3.149,0,0,1-.835-1.075,3.048,3.048,0,0,1-.293-1.322,2.968,2.968,0,0,1,.32-1.37,3.207,3.207,0,0,1,.888-1.074,4.21,4.21,0,0,1,1.35-.7,5.615,5.615,0,0,1,1.706-.248,5.363,5.363,0,0,1,1.6.227,3.642,3.642,0,0,1,1.252.661,2.932,2.932,0,0,1,.808,1.06,3.42,3.42,0,0,1,.285,1.426v.344h-6.716a1.863,1.863,0,0,0,.258.792,2.374,2.374,0,0,0,.577.661,2.778,2.778,0,0,0,.836.447,3.189,3.189,0,0,0,1.048.166,4.151,4.151,0,0,0,1.528-.248,3.411,3.411,0,0,0,1.119-.73Zm-1.19-2.63a1.67,1.67,0,0,0-.693-1.322,2.948,2.948,0,0,0-1.812-.5,3.193,3.193,0,0,0-1.865.5,1.965,1.965,0,0,0-.853,1.322Z" transform="translate(-55.414 -86.392)" fill="#9a7f59"></path><path id="Path_115" data-name="Path 115" d="M135.947,182.874q0-.441-.036-.827c-.024-.256-.036-.491-.036-.7h1.315c0,.174.006.349.018.523s.018.354.018.537h.036a1.935,1.935,0,0,1,.4-.454,2.831,2.831,0,0,1,.613-.392,3.821,3.821,0,0,1,.8-.276,4.245,4.245,0,0,1,.959-.1c.095,0,.189,0,.284.014a1.558,1.558,0,0,1,.284.055l-.088,1.088a3.3,3.3,0,0,0-.747-.083,2.388,2.388,0,0,0-1.857.64,2.528,2.528,0,0,0-.577,1.756v3.139h-1.386Z" transform="translate(-64.79 -86.392)" fill="#9a7f59"></path><path id="Path_116" data-name="Path 116" d="M167.914,184.041a10.5,10.5,0,0,1-2.283.688,13.388,13.388,0,0,1-2.425.22,9.252,9.252,0,0,1-2.7-.372,6.742,6.742,0,0,1-2.124-1.046,4.828,4.828,0,0,1-1.395-1.618,4.4,4.4,0,0,1-.5-2.087,4.243,4.243,0,0,1,.524-2.1,4.923,4.923,0,0,1,1.448-1.611,7.209,7.209,0,0,1,2.15-1.04,9.078,9.078,0,0,1,2.648-.372,9.715,9.715,0,0,1,2.389.289,5.507,5.507,0,0,1,2.052.991l-1.12.909a4.493,4.493,0,0,0-1.555-.826,6.191,6.191,0,0,0-1.875-.289,6.4,6.4,0,0,0-2.007.3,5.2,5.2,0,0,0-1.608.84,3.857,3.857,0,0,0-1.066,1.281,3.618,3.618,0,0,0,0,3.236,3.917,3.917,0,0,0,1.066,1.288,5.032,5.032,0,0,0,1.643.847,7,7,0,0,0,2.115.3,9.393,9.393,0,0,0,1.6-.145,7.653,7.653,0,0,0,1.528-.42v-2.988h-2.9v-1.075h4.388Z" transform="translate(-74.619 -83.305)" fill="#9a7f59"></path><path id="Path_117" data-name="Path 117" d="M190.818,186.619a4.185,4.185,0,0,1-1.635,1.04,6.522,6.522,0,0,1-2.061.3,5.391,5.391,0,0,1-1.758-.268,4.117,4.117,0,0,1-1.324-.722,3.149,3.149,0,0,1-.835-1.075,3.056,3.056,0,0,1-.294-1.322,2.975,2.975,0,0,1,.32-1.37,3.221,3.221,0,0,1,.889-1.074,4.215,4.215,0,0,1,1.35-.7,5.615,5.615,0,0,1,1.706-.248,5.363,5.363,0,0,1,1.6.227,3.642,3.642,0,0,1,1.252.661,2.945,2.945,0,0,1,.809,1.06,3.429,3.429,0,0,1,.284,1.426v.344H184.4a1.862,1.862,0,0,0,.257.792,2.374,2.374,0,0,0,.577.661,2.785,2.785,0,0,0,.836.447,3.189,3.189,0,0,0,1.048.166,4.151,4.151,0,0,0,1.528-.248,3.406,3.406,0,0,0,1.119-.73Zm-1.19-2.63a1.67,1.67,0,0,0-.693-1.322,2.947,2.947,0,0,0-1.812-.5,3.193,3.193,0,0,0-1.865.5,1.96,1.96,0,0,0-.853,1.322Z" transform="translate(-87.218 -86.392)" fill="#9a7f59"></path><path id="Path_118" data-name="Path 118" d="M202.575,173.915h1.386v4.9H204A4.106,4.106,0,0,1,205.32,178a4.612,4.612,0,0,1,1.661-.289,5.937,5.937,0,0,1,1.786.255,4.208,4.208,0,0,1,1.376.709,3.319,3.319,0,0,1,.889,1.074,3.008,3.008,0,0,1,0,2.7,3.361,3.361,0,0,1-.88,1.075,4.164,4.164,0,0,1-1.324.709,5.144,5.144,0,0,1-1.634.255,4.76,4.76,0,0,1-1.963-.379,2.944,2.944,0,0,1-1.235-.929h-.035v1.143h-1.386Zm1.386,7.188a2.151,2.151,0,0,0,.8,1.7,2.951,2.951,0,0,0,.933.51,4.082,4.082,0,0,0,2.434,0,2.969,2.969,0,0,0,.933-.51,2.193,2.193,0,0,0,0-3.4,2.957,2.957,0,0,0-.933-.51,4.081,4.081,0,0,0-2.434,0,2.94,2.94,0,0,0-.933.51,2.151,2.151,0,0,0-.8,1.7" transform="translate(-96.594 -82.928)" fill="#9a7f59"></path><path id="Path_119" data-name="Path 119" d="M222.542,184.567a2.831,2.831,0,0,1,.338-1.377,3.342,3.342,0,0,1,.924-1.067,4.387,4.387,0,0,1,1.4-.7,6.489,6.489,0,0,1,3.553,0,4.4,4.4,0,0,1,1.4.7,3.347,3.347,0,0,1,.924,1.067,2.978,2.978,0,0,1,0,2.754,3.347,3.347,0,0,1-.924,1.067,4.384,4.384,0,0,1-1.4.7,6.489,6.489,0,0,1-3.553,0,4.375,4.375,0,0,1-1.4-.7,3.342,3.342,0,0,1-.924-1.067,2.831,2.831,0,0,1-.338-1.377m1.493,0a2.151,2.151,0,0,0,.8,1.7,2.952,2.952,0,0,0,.933.51,4.081,4.081,0,0,0,2.434,0,2.96,2.96,0,0,0,.932-.51,2.193,2.193,0,0,0,0-3.4,2.949,2.949,0,0,0-.932-.51,4.081,4.081,0,0,0-2.434,0,2.941,2.941,0,0,0-.933.51,2.151,2.151,0,0,0-.8,1.7" transform="translate(-106.115 -86.392)" fill="#9a7f59"></path><path id="Path_120" data-name="Path 120" d="M250.882,186.413q0,.441.036.826t.036.7h-1.315c0-.174-.006-.349-.018-.523s-.018-.354-.018-.537h-.036a1.935,1.935,0,0,1-.4.454,2.829,2.829,0,0,1-.613.392,3.8,3.8,0,0,1-.8.275,4.211,4.211,0,0,1-.959.1,4.6,4.6,0,0,1-1.413-.193,2.752,2.752,0,0,1-.986-.537,2.082,2.082,0,0,1-.577-.833,2.965,2.965,0,0,1-.187-1.067V181.5h1.386v3.869a1.741,1.741,0,0,0,.462,1.28,1.947,1.947,0,0,0,1.439.469,3.376,3.376,0,0,0,1.164-.179,2.046,2.046,0,0,0,.8-.51,2.1,2.1,0,0,0,.461-.785,3.164,3.164,0,0,0,.151-1.006V181.5h1.386Z" transform="translate(-116.172 -86.544)" fill="#9a7f59"></path><path id="Path_121" data-name="Path 121" d="M270.463,187.941h-1.368l-2.363-4.958H266.7l-2.1,4.958h-1.421l-2.7-6.444h1.528l1.9,4.957h.035l2.15-4.957h1.457l2.185,4.957h.036l1.883-4.957h1.493Z" transform="translate(-124.204 -86.543)" fill="#9a7f59"></path><path id="Path_122" data-name="Path 122" d="M294.67,186.619a4.185,4.185,0,0,1-1.635,1.04,6.522,6.522,0,0,1-2.061.3,5.391,5.391,0,0,1-1.758-.268,4.117,4.117,0,0,1-1.324-.722,3.148,3.148,0,0,1-.835-1.075,3.056,3.056,0,0,1-.294-1.322,2.975,2.975,0,0,1,.32-1.37,3.221,3.221,0,0,1,.889-1.074,4.215,4.215,0,0,1,1.35-.7,5.615,5.615,0,0,1,1.706-.248,5.363,5.363,0,0,1,1.6.227,3.642,3.642,0,0,1,1.252.661,2.945,2.945,0,0,1,.809,1.06,3.428,3.428,0,0,1,.284,1.426v.344h-6.716a1.862,1.862,0,0,0,.257.792,2.373,2.373,0,0,0,.577.661,2.784,2.784,0,0,0,.836.447,3.189,3.189,0,0,0,1.048.166,4.151,4.151,0,0,0,1.528-.248,3.406,3.406,0,0,0,1.119-.73Zm-1.19-2.63a1.67,1.67,0,0,0-.693-1.322,2.946,2.946,0,0,0-1.812-.5,3.193,3.193,0,0,0-1.865.5,1.96,1.96,0,0,0-.853,1.322Z" transform="translate(-136.738 -86.392)" fill="#9a7f59"></path><path id="Path_123" data-name="Path 123" d="M306.5,182.874q0-.441-.035-.827c-.024-.256-.036-.491-.036-.7h1.315c0,.174.006.349.018.523s.017.354.017.537h.036a1.921,1.921,0,0,1,.4-.454,2.832,2.832,0,0,1,.613-.392,3.826,3.826,0,0,1,.8-.276,4.242,4.242,0,0,1,.959-.1,4.6,4.6,0,0,1,1.413.193,2.766,2.766,0,0,1,.986.537,2.088,2.088,0,0,1,.578.833,2.976,2.976,0,0,1,.186,1.067v3.98h-1.386V183.92a1.743,1.743,0,0,0-.462-1.281,1.949,1.949,0,0,0-1.439-.468,3.384,3.384,0,0,0-1.163.179,2.039,2.039,0,0,0-.8.51,2.089,2.089,0,0,0-.462.785,3.164,3.164,0,0,0-.151,1.006v3.139H306.5Z" transform="translate(-146.113 -86.392)" fill="#9a7f59"></path><path id="Path_124" data-name="Path 124" d="M110.3,42.146A21.233,21.233,0,0,0,118.217,58.7v4.531H103.291V0h14.926V25.583A21.244,21.244,0,0,0,110.3,42.146" transform="translate(-49.252)" fill="#9a7f59"></path><path id="Path_125" data-name="Path 125" d="M126.533,54.3V81.772a19.16,19.16,0,0,1,0-27.472" transform="translate(-57.568 -25.892)" fill="#9a7f59"></path><path id="Path_126" data-name="Path 126" d="M145.741,43.92a19.082,19.082,0,0,0-12.75,4.86V77.387a19.141,19.141,0,0,0,25.578-.068V48.853a19.09,19.09,0,0,0-12.828-4.933m0,26.143a6.976,6.976,0,1,1,6.979-6.974,6.98,6.98,0,0,1-6.979,6.974" transform="translate(-63.414 -20.942)" fill="#9a7f59"></path><path id="Path_127" data-name="Path 127" d="M188.774,68.11a19.1,19.1,0,0,1-5.723,13.655V54.45a19.108,19.108,0,0,1,5.723,13.66" transform="translate(-87.285 -25.963)" fill="#9a7f59"></path><path id="Path_128" data-name="Path 128" d="M197.825,41.45V93.694A10.726,10.726,0,0,1,187.1,104.419h-4.049V78.412a21.28,21.28,0,0,0,0-33V41.45Z" transform="translate(-87.285 -19.765)" fill="#9a7f59"></path><rect id="Rectangle_44" data-name="Rectangle 44" width="14.926" height="12.279" transform="translate(54.039 72.375)" fill="#9a7f59"></rect><path id="Path_129" data-name="Path 129" d="M118.223,150.625H103.166v-12.41h15.057Zm-14.926-.131h14.8V138.346H103.3Z" transform="translate(-49.193 -65.905)" fill="#9a7f59"></path><path id="Path_130" data-name="Path 130" d="M158.569,134.91v14.073H132.991V136.7H155.3a3.854,3.854,0,0,0,3.265-1.794" transform="translate(-63.414 -64.329)" fill="#9a7f59"></path></g></svg> 