<?xml version="1.0" encoding="UTF-8"?> <svg xmlns="http://www.w3.org/2000/svg" xmlns:xlink="http://www.w3.org/1999/xlink" version="1.1" id="Laag_1" x="0px" y="0px" viewBox="0 0 737.01 317.48" style="enable-background:new 0 0 737.01 317.48;" xml:space="preserve"> <style type="text/css"> .st0{fill:#F2ACB9;} .st1{fill:#275D38;} </style> <path class="st0" d="M473.27,228.43c12.48,0,22.6-10.12,22.6-22.6c0-12.48-10.12-22.6-22.6-22.6s-22.6,10.12-22.6,22.6 C450.67,218.31,460.79,228.43,473.27,228.43"></path> <path class="st1" d="M420.28,283.6c12.89,0,21.94-6.11,21.94-16.85c0-8.48-5.32-13.23-17.53-16.51l-6.22-1.7 c-7.35-2.04-9.73-3.17-9.73-6.11c0-2.71,2.37-4.18,6.33-4.18c6.45,0,13.23,3.05,18.66,8.71l7.24-10.86 c-3.85-4.86-12.55-10.06-24.54-10.06c-13.57,0-22.39,6.45-22.39,17.3c0,9.73,7.24,13.68,17.19,16.28l7.46,1.81 c5.88,1.47,9.05,2.6,9.05,5.54s-2.6,4.3-7.01,4.3c-8.37,0-16.4-4.86-21.03-9.84l-7.46,10.97 C396.98,279.08,407.95,283.6,420.28,283.6 M384.2,227.06h-16.17v55.41h16.17V227.06z M322.01,283.6c11.2,0,16.51-7.8,18.43-16.62 v15.49h16.17v-55.41h-16.17v30.65c0,9.05-2.37,13.34-10.06,13.34c-7.46,0-9.27-4.18-9.27-10.97v-33.02h-16.17v38.68 C304.93,277.15,311.49,283.6,322.01,283.6 M258.68,282.47v-30.65c0-9.05,2.49-13.34,10.18-13.34c7.35,0,9.16,4.18,9.16,10.97v33.02 h16.17v-38.68c0-11.42-6.45-17.87-16.96-17.87c-11.42,0-16.74,8.14-18.55,17.19V206.7H242.5v75.77H258.68z M218.76,283.6 c8.48,0,14.14-3.96,16.51-7.01l-4.64-13.23c-1.7,3.05-4.75,5.88-8.26,5.88c-3.17,0-5.43-1.58-5.43-6.11v-23.75h15.38v-12.33h-15.38 v-15.04l-16.17,7.62v7.42h-8.26v12.33h8.26v26.69C200.78,276.36,206.54,283.6,218.76,283.6"></path> <path class="st1" d="M707.88,283.6c8.48,0,14.14-3.96,16.51-7.01l-4.64-13.23c-1.7,3.05-4.75,5.88-8.26,5.88 c-3.17,0-5.43-1.58-5.43-6.11v-23.75h15.38v-12.33h-15.38v-7.5l-16.17-7.55v15.04h-8.26v12.33h8.26v26.69 C689.9,276.36,695.67,283.6,707.88,283.6 M640.71,282.47v-30.65c0-9.05,2.49-13.34,10.18-13.34c7.35,0,9.16,4.18,9.16,10.97v33.02 h16.17v-38.68c0-11.42-6.45-17.87-16.96-17.87c-11.42,0-16.74,8.14-18.55,17.19v-16.06h-16.17v55.41H640.71z M588.92,238.36 c7.24,0,11.2,3.96,11.76,11.31h-23.75C577.72,242.21,582.02,238.36,588.92,238.36 M590.16,283.6c12.44,0,19.9-5.43,24.09-11.42 l-9.84-9.84c-2.04,4.75-6.22,8.14-14.02,8.14c-7.24,0-12.44-3.73-13.46-11.54h37.77c0.34-1.24,0.57-4.41,0.57-6.79 c0-14.48-8.82-26.24-26.46-26.24c-16.28,0-27.03,11.76-27.03,28.84S572.52,283.6,590.16,283.6 M528.3,293.33 c-10.4,0-14.36-2.15-14.36-5.77c0-1.36,0.79-2.49,1.47-3.28h23.41c4.3,0,6.33,0.79,6.33,3.28 C545.15,291.18,539.5,293.33,528.3,293.33 M530.22,255.55c-5.09,0-9.16-3.17-9.16-9.39c0-6.22,4.07-9.39,9.16-9.39 c5.2,0,9.16,3.17,9.16,9.39C539.38,252.39,535.42,255.55,530.22,255.55 M530.22,266.41c14.48,0,24.31-8.26,24.31-20.24 c0-7.01-3.39-12.67-9.05-16.28l10.28-10.57l-13.81-6.46l-2.58,14.32c-2.83-0.79-5.88-1.24-9.16-1.24c-14.48,0-24.2,8.26-24.2,20.24 c0,7.12,3.39,12.89,9.16,16.4c-5.32,2.94-10.29,7.58-10.29,13.23c0,4.86,3.62,7.35,8.26,8.37c-6.67,0.79-12.21,3.51-12.21,8.82 c0,6.56,8.93,11.65,26.01,11.65c22.05,0,32.12-8.59,32.12-19c0-8.14-5.54-13.23-17.87-13.23h-19.45c-4.41,0-5.77-1.47-5.77-4.07 c0-1.58,0.68-3.28,1.47-4.52C521.06,265.51,525.36,266.41,530.22,266.41"></path> <polygon class="st0" points="232.45,58.62 450.73,160.4 450.73,115.96 232.45,14.17 14.17,115.96 14.17,160.4 "></polygon> </svg> 