<?xml version="1.0" encoding="UTF-8"?> <svg xmlns="http://www.w3.org/2000/svg" xmlns:xlink="http://www.w3.org/1999/xlink" id="Group_63" data-name="Group 63" width="98.668" height="111.154" viewBox="0 0 98.668 111.154"><defs><clipPath id="clip-path"><rect id="Rectangle_50" data-name="Rectangle 50" width="98.668" height="111.154" fill="#9a7f59"></rect></clipPath></defs><path id="Path_162" data-name="Path 162" d="M24.941,631.763h2.8l.815,10.135,1.456-10.135h2.155L33.387,641.9l.99-10.135h2.446l-2.446,18.7H32.105l-1.223-10.251-1.34,10.251H27.271Z" transform="translate(-21.854 -553.568)" fill="#9a7f59"></path><path id="Path_163" data-name="Path 163" d="M339.293,650.46v-18.7h2.388l2.854,10.193V631.763h2.33v18.7H344.71l-3.145-10.193V650.46Z" transform="translate(-297.298 -553.568)" fill="#9a7f59"></path><path id="Path_164" data-name="Path 164" d="M621.646,650.46v-18.7h2.388l2.854,10.193V631.763h2.33v18.7h-2.155l-3.145-10.193V650.46Z" transform="translate(-544.703 -553.568)" fill="#9a7f59"></path><g id="Group_51" data-name="Group 51" transform="translate(0)"><g id="Group_50" data-name="Group 50" clip-path="url(#clip-path)"><path id="Path_165" data-name="Path 165" d="M157.473,630.09a3.756,3.756,0,0,0-6.413,2.657v11.869a3.756,3.756,0,0,0,7.513,0V632.748a3.748,3.748,0,0,0-1.1-2.657m-1.3,14.432a1.354,1.354,0,1,1-2.708,0v-11.68a1.354,1.354,0,0,1,2.708,0Z" transform="translate(-132.363 -551.139)" fill="#9a7f59"></path><path id="Path_166" data-name="Path 166" d="M251.593,630.09a3.756,3.756,0,0,0-6.413,2.657v11.869a3.756,3.756,0,0,0,7.513,0V632.748a3.748,3.748,0,0,0-1.1-2.657m-1.3,14.432a1.354,1.354,0,1,1-2.708,0v-11.68a1.354,1.354,0,0,1,2.708,0Z" transform="translate(-214.834 -551.139)" fill="#9a7f59"></path><path id="Path_167" data-name="Path 167" d="M533.744,631.76v15.317a3.724,3.724,0,0,1-3.723,3.723h-.067a3.724,3.724,0,0,1-3.724-3.723V631.76h2.4v15.189a1.354,1.354,0,0,0,2.708,0V631.76Z" transform="translate(-461.097 -553.566)" fill="#9a7f59"></path><path id="Path_168" data-name="Path 168" d="M439.225,631.76H435.29v18.7H437.5v-7.631h1.72a3.514,3.514,0,0,0,3.514-3.514v-4.037a3.515,3.515,0,0,0-3.514-3.515m1.016,7.626a1,1,0,0,1-1,1h-1.625v-6.174h1.625a1,1,0,0,1,1,1Z" transform="translate(-381.413 -553.566)" fill="#9a7f59"></path><path id="Path_169" data-name="Path 169" d="M718.7,631.763H712v2.446h2.155V650.46h2.388V634.209H718.7Z" transform="translate(-623.872 -553.568)" fill="#9a7f59"></path><path id="Path_170" data-name="Path 170" d="M0,812.057V800.234H1.922l1.573,7.921L5.3,800.234H6.931v11.824H5.242v-4.834l-1.165,4.834H2.621l-1.165-5.009v5.009Z" transform="translate(0 -701.187)" fill="#9a7f59"></path><path id="Path_171" data-name="Path 171" d="M127.529,800.233v11.824h3.961v-1.573h-2.5v-3.553h1.456v-1.747h-1.456v-3.2h2.5v-1.747Z" transform="translate(-111.745 -701.187)" fill="#9a7f59"></path><path id="Path_172" data-name="Path 172" d="M449.646,800.233v11.824h3.961v-1.573h-2.5v-3.553h1.456v-1.747H451.1v-3.2h2.5v-1.747Z" transform="translate(-393.993 -701.187)" fill="#9a7f59"></path><path id="Path_173" data-name="Path 173" d="M655.528,800.233v11.824h3.961v-1.573h-2.5v-3.553h1.456v-1.747h-1.456v-3.2h2.5v-1.747Z" transform="translate(-574.392 -701.187)" fill="#9a7f59"></path><path id="Path_174" data-name="Path 174" d="M339.293,800.233v11.824h1.514v-5.125h1.631v5.125h1.573V800.233h-1.34v5.184h-1.806v-5.184Z" transform="translate(-297.298 -701.187)" fill="#9a7f59"></path><path id="Path_175" data-name="Path 175" d="M553.881,800.233v11.824h3.844v-1.573h-2.213V800.233Z" transform="translate(-485.326 -701.187)" fill="#9a7f59"></path><path id="Path_176" data-name="Path 176" d="M758.116,812.057V800.234h1.747l1.514,5.912v-5.912h1.573v11.824h-1.515l-1.806-5.912v5.912Z" transform="translate(-664.282 -701.187)" fill="#9a7f59"></path><path id="Path_177" data-name="Path 177" d="M232.474,800.912v-.36a.819.819,0,0,0-1.638,0v7.185a.819.819,0,1,0,1.638,0V807.6l1.657-.368v.629a2.475,2.475,0,0,1-4.951,0v-7.439a2.475,2.475,0,0,1,4.951,0v.486Z" transform="translate(-200.814 -699.186)" fill="#9a7f59"></path><path id="Path_178" data-name="Path 178" d="M188.771,60.546H159.529L164.67,0l24.1,8.781L212.431,0l5.184,60.546h-5.184l-18.144-7.339.262-39.185,14.124-7.208-20.1,6.815Z" transform="translate(-139.784 0.001)" fill="#9a7f59"></path><path id="Path_179" data-name="Path 179" d="M279.123,537.13c0,1.339-9.179,2.424-20.5,2.424s-20.5-1.085-20.5-2.424,9.179-2.424,20.5-2.424,20.5,1.086,20.5,2.424" transform="translate(-208.646 -468.524)" fill="#9a7f59"></path></g></g></svg> 